<svg xmlns="http://www.w3.org/2000/svg" viewBox="0 0 1920 1080"><defs><style>.cls-1,.cls-10,.cls-4{fill:none;}.cls-1{stroke:#999;stroke-width:0.25px;}.cls-1,.cls-10,.cls-3,.cls-9{stroke-miterlimit:10;}.cls-2,.cls-3,.cls-5,.cls-8,.cls-9{fill:#29abe2;}.cls-2,.cls-3,.cls-4,.cls-5{stroke:#29abe2;stroke-width:1.14px;}.cls-2,.cls-4,.cls-5{stroke-linecap:round;stroke-linejoin:round;}.cls-2{stroke-dasharray:0.17 0.17;}.cls-6{opacity:0.1;}.cls-7{fill:#fff;}.cls-10,.cls-9{stroke:#fff;stroke-width:3.45px;}</style></defs><g id="grid"><g id="vertical"><line class="cls-1" x1="0.5" y1="1080" x2="0.5"/><line class="cls-1" x1="6.05" y1="1080" x2="6.05"/><line class="cls-1" x1="11.59" y1="1080" x2="11.59"/><line class="cls-1" x1="17.14" y1="1080" x2="17.14"/><line class="cls-1" x1="22.68" y1="1080" x2="22.68"/><line class="cls-1" x1="28.23" y1="1080" x2="28.23"/><line class="cls-1" x1="33.78" y1="1080" x2="33.78"/><line class="cls-1" x1="39.32" y1="1080" x2="39.32"/><line class="cls-1" x1="44.87" y1="1080" x2="44.87"/><line class="cls-1" x1="50.42" y1="1080" x2="50.42"/><line class="cls-1" x1="55.96" y1="1080" x2="55.96"/><line class="cls-1" x1="61.51" y1="1080" x2="61.51"/><line class="cls-1" x1="67.05" y1="1080" x2="67.05"/><line class="cls-1" x1="72.6" y1="1080" x2="72.6"/><line class="cls-1" x1="78.15" y1="1080" x2="78.15"/><line class="cls-1" x1="83.69" y1="1080" x2="83.69"/><line class="cls-1" x1="89.24" y1="1080" x2="89.24"/><line class="cls-1" x1="94.79" y1="1080" x2="94.79"/><line class="cls-1" x1="100.33" y1="1080" x2="100.33"/><line class="cls-1" x1="105.88" y1="1080" x2="105.88"/><line class="cls-1" x1="111.42" y1="1080" x2="111.42"/><line class="cls-1" x1="116.97" y1="1080" x2="116.97"/><line class="cls-1" x1="122.52" y1="1080" x2="122.52"/><line class="cls-1" x1="128.06" y1="1080" x2="128.06"/><line class="cls-1" x1="133.61" y1="1080" x2="133.61"/><line class="cls-1" x1="139.16" y1="1080" x2="139.16"/><line class="cls-1" x1="144.7" y1="1080" x2="144.7"/><line class="cls-1" x1="150.25" y1="1080" x2="150.25"/><line class="cls-1" x1="155.79" y1="1080" x2="155.79"/><line class="cls-1" x1="161.34" y1="1080" x2="161.34"/><line class="cls-1" x1="166.89" y1="1080" x2="166.89"/><line class="cls-1" x1="172.43" y1="1080" x2="172.43"/><line class="cls-1" x1="177.98" y1="1080" x2="177.98"/><line class="cls-1" x1="183.53" y1="1080" x2="183.53"/><line class="cls-1" x1="189.07" y1="1080" x2="189.07"/><line class="cls-1" x1="194.62" y1="1080" x2="194.62"/><line class="cls-1" x1="200.16" y1="1080" x2="200.16"/><line class="cls-1" x1="205.71" y1="1080" x2="205.71"/><line class="cls-1" x1="211.26" y1="1080" x2="211.26"/><line class="cls-1" x1="216.8" y1="1080" x2="216.8"/><line class="cls-1" x1="222.35" y1="1080" x2="222.35"/><line class="cls-1" x1="227.9" y1="1080" x2="227.9"/><line class="cls-1" x1="233.44" y1="1080" x2="233.44"/><line class="cls-1" x1="238.99" y1="1080" x2="238.99"/><line class="cls-1" x1="244.53" y1="1080" x2="244.53"/><line class="cls-1" x1="250.08" y1="1080" x2="250.08"/><line class="cls-1" x1="255.63" y1="1080" x2="255.63"/><line class="cls-1" x1="261.17" y1="1080" x2="261.17"/><line class="cls-1" x1="266.72" y1="1080" x2="266.72"/><line class="cls-1" x1="272.27" y1="1080" x2="272.27"/><line class="cls-1" x1="277.81" y1="1080" x2="277.81"/><line class="cls-1" x1="283.36" y1="1080" x2="283.36"/><line class="cls-1" x1="288.9" y1="1080" x2="288.9"/><line class="cls-1" x1="294.45" y1="1080" x2="294.45"/><line class="cls-1" x1="300" y1="1080" x2="300"/><line class="cls-1" x1="305.54" y1="1080" x2="305.54"/><line class="cls-1" x1="311.09" y1="1080" x2="311.09"/><line class="cls-1" x1="316.64" y1="1080" x2="316.64"/><line class="cls-1" x1="322.18" y1="1080" x2="322.18"/><line class="cls-1" x1="327.73" y1="1080" x2="327.73"/><line class="cls-1" x1="333.27" y1="1080" x2="333.27"/><line class="cls-1" x1="338.82" y1="1080" x2="338.82"/><line class="cls-1" x1="344.37" y1="1080" x2="344.37"/><line class="cls-1" x1="349.91" y1="1080" x2="349.91"/><line class="cls-1" x1="355.46" y1="1080" x2="355.46"/><line class="cls-1" x1="361.01" y1="1080" x2="361.01"/><line class="cls-1" x1="366.55" y1="1080" x2="366.55"/><line class="cls-1" x1="372.1" y1="1080" x2="372.1"/><line class="cls-1" x1="377.64" y1="1080" x2="377.64"/><line class="cls-1" x1="383.19" y1="1080" x2="383.19"/><line class="cls-1" x1="388.74" y1="1080" x2="388.74"/><line class="cls-1" x1="394.28" y1="1080" x2="394.28"/><line class="cls-1" x1="399.83" y1="1080" x2="399.83"/><line class="cls-1" x1="405.38" y1="1080" x2="405.38"/><line class="cls-1" x1="410.92" y1="1080" x2="410.92"/><line class="cls-1" x1="416.47" y1="1080" x2="416.47"/><line class="cls-1" x1="422.01" y1="1080" x2="422.01"/><line class="cls-1" x1="427.56" y1="1080" x2="427.56"/><line class="cls-1" x1="433.11" y1="1080" x2="433.11"/><line class="cls-1" x1="438.65" y1="1080" x2="438.65"/><line class="cls-1" x1="444.2" y1="1080" x2="444.2"/><line class="cls-1" x1="449.75" y1="1080" x2="449.75"/><line class="cls-1" x1="455.29" y1="1080" x2="455.29"/><line class="cls-1" x1="460.84" y1="1080" x2="460.84"/><line class="cls-1" x1="466.38" y1="1080" x2="466.38"/><line class="cls-1" x1="471.93" y1="1080" x2="471.93"/><line class="cls-1" x1="477.48" y1="1080" x2="477.48"/><line class="cls-1" x1="483.02" y1="1080" x2="483.02"/><line class="cls-1" x1="488.57" y1="1080" x2="488.57"/><line class="cls-1" x1="494.12" y1="1080" x2="494.12"/><line class="cls-1" x1="499.66" y1="1080" x2="499.66"/><line class="cls-1" x1="505.21" y1="1080" x2="505.21"/><line class="cls-1" x1="510.75" y1="1080" x2="510.75"/><line class="cls-1" x1="516.3" y1="1080" x2="516.3"/><line class="cls-1" x1="521.85" y1="1080" x2="521.85"/><line class="cls-1" x1="527.39" y1="1080" x2="527.39"/><line class="cls-1" x1="532.94" y1="1080" x2="532.94"/><line class="cls-1" x1="538.49" y1="1080" x2="538.49"/><line class="cls-1" x1="544.03" y1="1080" x2="544.03"/><line class="cls-1" x1="549.58" y1="1080" x2="549.58"/><line class="cls-1" x1="555.12" y1="1080" x2="555.12"/><line class="cls-1" x1="560.67" y1="1080" x2="560.67"/><line class="cls-1" x1="566.22" y1="1080" x2="566.22"/><line class="cls-1" x1="571.76" y1="1080" x2="571.76"/><line class="cls-1" x1="577.31" y1="1080" x2="577.31"/><line class="cls-1" x1="582.86" y1="1080" x2="582.86"/><line class="cls-1" x1="588.4" y1="1080" x2="588.4"/><line class="cls-1" x1="593.95" y1="1080" x2="593.95"/><line class="cls-1" x1="599.49" y1="1080" x2="599.49"/><line class="cls-1" x1="605.04" y1="1080" x2="605.04"/><line class="cls-1" x1="610.59" y1="1080" x2="610.59"/><line class="cls-1" x1="616.13" y1="1080" x2="616.13"/><line class="cls-1" x1="621.68" y1="1080" x2="621.68"/><line class="cls-1" x1="627.23" y1="1080" x2="627.23"/><line class="cls-1" x1="632.77" y1="1080" x2="632.77"/><line class="cls-1" x1="638.32" y1="1080" x2="638.32"/><line class="cls-1" x1="643.86" y1="1080" x2="643.86"/><line class="cls-1" x1="649.41" y1="1080" x2="649.41"/><line class="cls-1" x1="654.96" y1="1080" x2="654.96"/><line class="cls-1" x1="660.5" y1="1080" x2="660.5"/><line class="cls-1" x1="666.05" y1="1080" x2="666.05"/><line class="cls-1" x1="671.6" y1="1080" x2="671.6"/><line class="cls-1" x1="677.14" y1="1080" x2="677.14"/><line class="cls-1" x1="682.69" y1="1080" x2="682.69"/><line class="cls-1" x1="688.23" y1="1080" x2="688.23"/><line class="cls-1" x1="693.78" y1="1080" x2="693.78"/><line class="cls-1" x1="699.33" y1="1080" x2="699.33"/><line class="cls-1" x1="704.87" y1="1080" x2="704.87"/><line class="cls-1" x1="710.42" y1="1080" x2="710.42"/><line class="cls-1" x1="715.97" y1="1080" x2="715.97"/><line class="cls-1" x1="721.51" y1="1080" x2="721.51"/><line class="cls-1" x1="727.06" y1="1080" x2="727.06"/><line class="cls-1" x1="732.6" y1="1080" x2="732.6"/><line class="cls-1" x1="738.15" y1="1080" x2="738.15"/><line class="cls-1" x1="743.7" y1="1080" x2="743.7"/><line class="cls-1" x1="749.24" y1="1080" x2="749.24"/><line class="cls-1" x1="754.79" y1="1080" x2="754.79"/><line class="cls-1" x1="760.34" y1="1080" x2="760.34"/><line class="cls-1" x1="765.88" y1="1080" x2="765.88"/><line class="cls-1" x1="771.43" y1="1080" x2="771.43"/><line class="cls-1" x1="776.97" y1="1080" x2="776.97"/><line class="cls-1" x1="782.52" y1="1080" x2="782.52"/><line class="cls-1" x1="788.07" y1="1080" x2="788.07"/><line class="cls-1" x1="793.61" y1="1080" x2="793.61"/><line class="cls-1" x1="799.16" y1="1080" x2="799.16"/><line class="cls-1" x1="804.71" y1="1080" x2="804.71"/><line class="cls-1" x1="810.25" y1="1080" x2="810.25"/><line class="cls-1" x1="815.8" y1="1080" x2="815.8"/><line class="cls-1" x1="821.34" y1="1080" x2="821.34"/><line class="cls-1" x1="826.89" y1="1080" x2="826.89"/><line class="cls-1" x1="832.44" y1="1080" x2="832.44"/><line class="cls-1" x1="837.98" y1="1080" x2="837.98"/><line class="cls-1" x1="843.53" y1="1080" x2="843.53"/><line class="cls-1" x1="849.08" y1="1080" x2="849.08"/><line class="cls-1" x1="854.62" y1="1080" x2="854.62"/><line class="cls-1" x1="860.17" y1="1080" x2="860.17"/><line class="cls-1" x1="865.71" y1="1080" x2="865.71"/><line class="cls-1" x1="871.26" y1="1080" x2="871.26"/><line class="cls-1" x1="876.81" y1="1080" x2="876.81"/><line class="cls-1" x1="882.35" y1="1080" x2="882.35"/><line class="cls-1" x1="887.9" y1="1080" x2="887.9"/><line class="cls-1" x1="893.45" y1="1080" x2="893.45"/><line class="cls-1" x1="898.99" y1="1080" x2="898.99"/><line class="cls-1" x1="904.54" y1="1080" x2="904.54"/><line class="cls-1" x1="910.08" y1="1080" x2="910.08"/><line class="cls-1" x1="915.63" y1="1080" x2="915.63"/><line class="cls-1" x1="921.18" y1="1080" x2="921.18"/><line class="cls-1" x1="926.72" y1="1080" x2="926.72"/><line class="cls-1" x1="932.27" y1="1080" x2="932.27"/><line class="cls-1" x1="937.82" y1="1080" x2="937.82"/><line class="cls-1" x1="943.36" y1="1080" x2="943.36"/><line class="cls-1" x1="948.91" y1="1080" x2="948.91"/><line class="cls-1" x1="954.45" y1="1080" x2="954.45"/><line class="cls-1" x1="960" y1="1080" x2="960"/><line class="cls-1" x1="965.55" y1="1080" x2="965.55"/><line class="cls-1" x1="971.09" y1="1080" x2="971.09"/><line class="cls-1" x1="976.64" y1="1080" x2="976.64"/><line class="cls-1" x1="982.18" y1="1080" x2="982.18"/><line class="cls-1" x1="987.73" y1="1080" x2="987.73"/><line class="cls-1" x1="993.28" y1="1080" x2="993.28"/><line class="cls-1" x1="998.82" y1="1080" x2="998.82"/><line class="cls-1" x1="1004.37" y1="1080" x2="1004.37"/><line class="cls-1" x1="1009.92" y1="1080" x2="1009.92"/><line class="cls-1" x1="1015.46" y1="1080" x2="1015.46"/><line class="cls-1" x1="1021.01" y1="1080" x2="1021.01"/><line class="cls-1" x1="1026.55" y1="1080" x2="1026.55"/><line class="cls-1" x1="1032.1" y1="1080" x2="1032.1"/><line class="cls-1" x1="1037.65" y1="1080" x2="1037.65"/><line class="cls-1" x1="1043.19" y1="1080" x2="1043.19"/><line class="cls-1" x1="1048.74" y1="1080" x2="1048.74"/><line class="cls-1" x1="1054.29" y1="1080" x2="1054.29"/><line class="cls-1" x1="1059.83" y1="1080" x2="1059.83"/><line class="cls-1" x1="1065.38" y1="1080" x2="1065.38"/><line class="cls-1" x1="1070.92" y1="1080" x2="1070.92"/><line class="cls-1" x1="1076.47" y1="1080" x2="1076.47"/><line class="cls-1" x1="1082.02" y1="1080" x2="1082.02"/><line class="cls-1" x1="1087.56" y1="1080" x2="1087.56"/><line class="cls-1" x1="1093.11" y1="1080" x2="1093.11"/><line class="cls-1" x1="1098.66" y1="1080" x2="1098.66"/><line class="cls-1" x1="1104.2" y1="1080" x2="1104.2"/><line class="cls-1" x1="1109.75" y1="1080" x2="1109.75"/><line class="cls-1" x1="1115.29" y1="1080" x2="1115.29"/><line class="cls-1" x1="1120.84" y1="1080" x2="1120.84"/><line class="cls-1" x1="1126.39" y1="1080" x2="1126.39"/><line class="cls-1" x1="1131.93" y1="1080" x2="1131.93"/><line class="cls-1" x1="1137.48" y1="1080" x2="1137.48"/><line class="cls-1" x1="1143.03" y1="1080" x2="1143.03"/><line class="cls-1" x1="1148.57" y1="1080" x2="1148.57"/><line class="cls-1" x1="1154.12" y1="1080" x2="1154.12"/><line class="cls-1" x1="1159.66" y1="1080" x2="1159.66"/><line class="cls-1" x1="1165.21" y1="1080" x2="1165.21"/><line class="cls-1" x1="1170.76" y1="1080" x2="1170.76"/><line class="cls-1" x1="1176.3" y1="1080" x2="1176.3"/><line class="cls-1" x1="1181.85" y1="1080" x2="1181.85"/><line class="cls-1" x1="1187.4" y1="1080" x2="1187.4"/><line class="cls-1" x1="1192.94" y1="1080" x2="1192.94"/><line class="cls-1" x1="1198.49" y1="1080" x2="1198.49"/><line class="cls-1" x1="1204.03" y1="1080" x2="1204.03"/><line class="cls-1" x1="1209.58" y1="1080" x2="1209.58"/><line class="cls-1" x1="1215.13" y1="1080" x2="1215.13"/><line class="cls-1" x1="1220.67" y1="1080" x2="1220.67"/><line class="cls-1" x1="1226.22" y1="1080" x2="1226.22"/><line class="cls-1" x1="1231.77" y1="1080" x2="1231.77"/><line class="cls-1" x1="1237.31" y1="1080" x2="1237.31"/><line class="cls-1" x1="1242.86" y1="1080" x2="1242.86"/><line class="cls-1" x1="1248.4" y1="1080" x2="1248.4"/><line class="cls-1" x1="1253.95" y1="1080" x2="1253.95"/><line class="cls-1" x1="1259.5" y1="1080" x2="1259.5"/><line class="cls-1" x1="1265.04" y1="1080" x2="1265.04"/><line class="cls-1" x1="1270.59" y1="1080" x2="1270.59"/><line class="cls-1" x1="1276.14" y1="1080" x2="1276.14"/><line class="cls-1" x1="1281.68" y1="1080" x2="1281.68"/><line class="cls-1" x1="1287.23" y1="1080" x2="1287.23"/><line class="cls-1" x1="1292.77" y1="1080" x2="1292.77"/><line class="cls-1" x1="1298.32" y1="1080" x2="1298.32"/><line class="cls-1" x1="1303.87" y1="1080" x2="1303.87"/><line class="cls-1" x1="1309.41" y1="1080" x2="1309.41"/><line class="cls-1" x1="1314.96" y1="1080" x2="1314.96"/><line class="cls-1" x1="1320.51" y1="1080" x2="1320.51"/><line class="cls-1" x1="1326.05" y1="1080" x2="1326.05"/><line class="cls-1" x1="1331.6" y1="1080" x2="1331.6"/><line class="cls-1" x1="1337.14" y1="1080" x2="1337.14"/><line class="cls-1" x1="1342.69" y1="1080" x2="1342.69"/><line class="cls-1" x1="1348.24" y1="1080" x2="1348.24"/><line class="cls-1" x1="1353.78" y1="1080" x2="1353.78"/><line class="cls-1" x1="1359.33" y1="1080" x2="1359.33"/><line class="cls-1" x1="1364.88" y1="1080" x2="1364.88"/><line class="cls-1" x1="1370.42" y1="1080" x2="1370.42"/><line class="cls-1" x1="1375.97" y1="1080" x2="1375.97"/><line class="cls-1" x1="1381.51" y1="1080" x2="1381.51"/><line class="cls-1" x1="1387.06" y1="1080" x2="1387.06"/><line class="cls-1" x1="1392.61" y1="1080" x2="1392.61"/><line class="cls-1" x1="1398.15" y1="1080" x2="1398.15"/><line class="cls-1" x1="1403.7" y1="1080" x2="1403.7"/><line class="cls-1" x1="1409.25" y1="1080" x2="1409.25"/><line class="cls-1" x1="1414.79" y1="1080" x2="1414.79"/><line class="cls-1" x1="1420.34" y1="1080" x2="1420.34"/><line class="cls-1" x1="1425.88" y1="1080" x2="1425.88"/><line class="cls-1" x1="1431.43" y1="1080" x2="1431.43"/><line class="cls-1" x1="1436.98" y1="1080" x2="1436.98"/><line class="cls-1" x1="1442.52" y1="1080" x2="1442.52"/><line class="cls-1" x1="1448.07" y1="1080" x2="1448.07"/><line class="cls-1" x1="1453.62" y1="1080" x2="1453.62"/><line class="cls-1" x1="1459.16" y1="1080" x2="1459.16"/><line class="cls-1" x1="1464.71" y1="1080" x2="1464.71"/><line class="cls-1" x1="1470.25" y1="1080" x2="1470.25"/><line class="cls-1" x1="1475.8" y1="1080" x2="1475.8"/><line class="cls-1" x1="1481.35" y1="1080" x2="1481.35"/><line class="cls-1" x1="1486.89" y1="1080" x2="1486.89"/><line class="cls-1" x1="1492.44" y1="1080" x2="1492.44"/><line class="cls-1" x1="1497.99" y1="1080" x2="1497.99"/><line class="cls-1" x1="1503.53" y1="1080" x2="1503.53"/><line class="cls-1" x1="1509.08" y1="1080" x2="1509.08"/><line class="cls-1" x1="1514.62" y1="1080" x2="1514.62"/><line class="cls-1" x1="1520.17" y1="1080" x2="1520.17"/><line class="cls-1" x1="1525.72" y1="1080" x2="1525.72"/><line class="cls-1" x1="1531.26" y1="1080" x2="1531.26"/><line class="cls-1" x1="1536.81" y1="1080" x2="1536.81"/><line class="cls-1" x1="1542.36" y1="1080" x2="1542.36"/><line class="cls-1" x1="1547.9" y1="1080" x2="1547.9"/><line class="cls-1" x1="1553.45" y1="1080" x2="1553.45"/><line class="cls-1" x1="1558.99" y1="1080" x2="1558.99"/><line class="cls-1" x1="1564.54" y1="1080" x2="1564.54"/><line class="cls-1" x1="1570.09" y1="1080" x2="1570.09"/><line class="cls-1" x1="1575.63" y1="1080" x2="1575.63"/><line class="cls-1" x1="1581.18" y1="1080" x2="1581.18"/><line class="cls-1" x1="1586.73" y1="1080" x2="1586.73"/><line class="cls-1" x1="1592.27" y1="1080" x2="1592.27"/><line class="cls-1" x1="1597.82" y1="1080" x2="1597.82"/><line class="cls-1" x1="1603.36" y1="1080" x2="1603.36"/><line class="cls-1" x1="1608.91" y1="1080" x2="1608.91"/><line class="cls-1" x1="1614.46" y1="1080" x2="1614.46"/><line class="cls-1" x1="1620" y1="1080" x2="1620"/><line class="cls-1" x1="1625.55" y1="1080" x2="1625.55"/><line class="cls-1" x1="1631.1" y1="1080" x2="1631.1"/><line class="cls-1" x1="1636.64" y1="1080" x2="1636.64"/><line class="cls-1" x1="1642.19" y1="1080" x2="1642.19"/><line class="cls-1" x1="1647.73" y1="1080" x2="1647.73"/><line class="cls-1" x1="1653.28" y1="1080" x2="1653.28"/><line class="cls-1" x1="1658.83" y1="1080" x2="1658.83"/><line class="cls-1" x1="1664.37" y1="1080" x2="1664.37"/><line class="cls-1" x1="1669.92" y1="1080" x2="1669.92"/><line class="cls-1" x1="1675.47" y1="1080" x2="1675.47"/><line class="cls-1" x1="1681.01" y1="1080" x2="1681.01"/><line class="cls-1" x1="1686.56" y1="1080" x2="1686.56"/><line class="cls-1" x1="1692.1" y1="1080" x2="1692.1"/><line class="cls-1" x1="1697.65" y1="1080" x2="1697.65"/><line class="cls-1" x1="1703.2" y1="1080" x2="1703.2"/><line class="cls-1" x1="1708.74" y1="1080" x2="1708.74"/><line class="cls-1" x1="1714.29" y1="1080" x2="1714.29"/><line class="cls-1" x1="1719.84" y1="1080" x2="1719.84"/><line class="cls-1" x1="1725.38" y1="1080" x2="1725.38"/><line class="cls-1" x1="1730.93" y1="1080" x2="1730.93"/><line class="cls-1" x1="1736.47" y1="1080" x2="1736.47"/><line class="cls-1" x1="1742.02" y1="1080" x2="1742.02"/><line class="cls-1" x1="1747.57" y1="1080" x2="1747.57"/><line class="cls-1" x1="1753.11" y1="1080" x2="1753.11"/><line class="cls-1" x1="1758.66" y1="1080" x2="1758.66"/><line class="cls-1" x1="1764.21" y1="1080" x2="1764.21"/><line class="cls-1" x1="1769.75" y1="1080" x2="1769.75"/><line class="cls-1" x1="1775.3" y1="1080" x2="1775.3"/><line class="cls-1" x1="1780.84" y1="1080" x2="1780.84"/><line class="cls-1" x1="1786.39" y1="1080" x2="1786.39"/><line class="cls-1" x1="1791.94" y1="1080" x2="1791.94"/><line class="cls-1" x1="1797.48" y1="1080" x2="1797.48"/><line class="cls-1" x1="1803.03" y1="1080" x2="1803.03"/><line class="cls-1" x1="1808.58" y1="1080" x2="1808.58"/><line class="cls-1" x1="1814.12" y1="1080" x2="1814.12"/><line class="cls-1" x1="1819.67" y1="1080" x2="1819.67"/><line class="cls-1" x1="1825.21" y1="1080" x2="1825.21"/><line class="cls-1" x1="1830.76" y1="1080" x2="1830.76"/><line class="cls-1" x1="1836.31" y1="1080" x2="1836.31"/><line class="cls-1" x1="1841.85" y1="1080" x2="1841.85"/><line class="cls-1" x1="1847.4" y1="1080" x2="1847.4"/><line class="cls-1" x1="1852.95" y1="1080" x2="1852.95"/><line class="cls-1" x1="1858.49" y1="1080" x2="1858.49"/><line class="cls-1" x1="1864.04" y1="1080" x2="1864.04"/><line class="cls-1" x1="1869.58" y1="1080" x2="1869.58"/><line class="cls-1" x1="1875.13" y1="1080" x2="1875.13"/><line class="cls-1" x1="1880.68" y1="1080" x2="1880.68"/><line class="cls-1" x1="1886.22" y1="1080" x2="1886.22"/><line class="cls-1" x1="1891.77" y1="1080" x2="1891.77"/><line class="cls-1" x1="1897.32" y1="1080" x2="1897.32"/><line class="cls-1" x1="1902.86" y1="1080" x2="1902.86"/><line class="cls-1" x1="1908.41" y1="1080" x2="1908.41"/><line class="cls-1" x1="1913.95" y1="1080" x2="1913.95"/><line class="cls-1" x1="1919.5" y1="1080" x2="1919.5"/></g><g id="horizontal"><line class="cls-1" y1="0.5" x2="1920" y2="0.5"/><line class="cls-1" y1="5.84" x2="1920" y2="5.84"/><line class="cls-1" y1="11.18" x2="1920" y2="11.18"/><line class="cls-1" y1="16.52" x2="1920" y2="16.52"/><line class="cls-1" y1="21.87" x2="1920" y2="21.87"/><line class="cls-1" y1="27.21" x2="1920" y2="27.21"/><line class="cls-1" y1="32.55" x2="1920" y2="32.55"/><line class="cls-1" y1="37.89" x2="1920" y2="37.89"/><line class="cls-1" y1="43.23" x2="1920" y2="43.23"/><line class="cls-1" y1="48.57" x2="1920" y2="48.57"/><line class="cls-1" y1="53.92" x2="1920" y2="53.92"/><line class="cls-1" y1="59.26" x2="1920" y2="59.26"/><line class="cls-1" y1="64.6" x2="1920" y2="64.6"/><line class="cls-1" y1="69.94" x2="1920" y2="69.94"/><line class="cls-1" y1="75.28" x2="1920" y2="75.28"/><line class="cls-1" y1="80.62" x2="1920" y2="80.62"/><line class="cls-1" y1="85.97" x2="1920" y2="85.97"/><line class="cls-1" y1="91.31" x2="1920" y2="91.31"/><line class="cls-1" y1="96.65" x2="1920" y2="96.65"/><line class="cls-1" y1="101.99" x2="1920" y2="101.99"/><line class="cls-1" y1="107.33" x2="1920" y2="107.33"/><line class="cls-1" y1="112.67" x2="1920" y2="112.67"/><line class="cls-1" y1="118.01" x2="1920" y2="118.01"/><line class="cls-1" y1="123.36" x2="1920" y2="123.36"/><line class="cls-1" y1="128.7" x2="1920" y2="128.7"/><line class="cls-1" y1="134.04" x2="1920" y2="134.04"/><line class="cls-1" y1="139.38" x2="1920" y2="139.38"/><line class="cls-1" y1="144.72" x2="1920" y2="144.72"/><line class="cls-1" y1="150.06" x2="1920" y2="150.06"/><line class="cls-1" y1="155.41" x2="1920" y2="155.41"/><line class="cls-1" y1="160.75" x2="1920" y2="160.75"/><line class="cls-1" y1="166.09" x2="1920" y2="166.09"/><line class="cls-1" y1="171.43" x2="1920" y2="171.43"/><line class="cls-1" y1="176.77" x2="1920" y2="176.77"/><line class="cls-1" y1="182.11" x2="1920" y2="182.11"/><line class="cls-1" y1="187.46" x2="1920" y2="187.46"/><line class="cls-1" y1="192.8" x2="1920" y2="192.8"/><line class="cls-1" y1="198.14" x2="1920" y2="198.14"/><line class="cls-1" y1="203.48" x2="1920" y2="203.48"/><line class="cls-1" y1="208.82" x2="1920" y2="208.82"/><line class="cls-1" y1="214.16" x2="1920" y2="214.16"/><line class="cls-1" y1="219.5" x2="1920" y2="219.5"/><line class="cls-1" y1="224.85" x2="1920" y2="224.85"/><line class="cls-1" y1="230.19" x2="1920" y2="230.19"/><line class="cls-1" y1="235.53" x2="1920" y2="235.53"/><line class="cls-1" y1="240.87" x2="1920" y2="240.87"/><line class="cls-1" y1="246.21" x2="1920" y2="246.21"/><line class="cls-1" y1="251.55" x2="1920" y2="251.55"/><line class="cls-1" y1="256.9" x2="1920" y2="256.9"/><line class="cls-1" y1="262.24" x2="1920" y2="262.24"/><line class="cls-1" y1="267.58" x2="1920" y2="267.58"/><line class="cls-1" y1="272.92" x2="1920" y2="272.92"/><line class="cls-1" y1="278.26" x2="1920" y2="278.26"/><line class="cls-1" y1="283.6" x2="1920" y2="283.6"/><line class="cls-1" y1="288.95" x2="1920" y2="288.95"/><line class="cls-1" y1="294.29" x2="1920" y2="294.29"/><line class="cls-1" y1="299.63" x2="1920" y2="299.63"/><line class="cls-1" y1="304.97" x2="1920" y2="304.97"/><line class="cls-1" y1="310.31" x2="1920" y2="310.31"/><line class="cls-1" y1="315.65" x2="1920" y2="315.65"/><line class="cls-1" y1="321" x2="1920" y2="321"/><line class="cls-1" y1="326.34" x2="1920" y2="326.34"/><line class="cls-1" y1="331.68" x2="1920" y2="331.68"/><line class="cls-1" y1="337.02" x2="1920" y2="337.02"/><line class="cls-1" y1="342.36" x2="1920" y2="342.36"/><line class="cls-1" y1="347.7" x2="1920" y2="347.7"/><line class="cls-1" y1="353.04" x2="1920" y2="353.04"/><line class="cls-1" y1="358.39" x2="1920" y2="358.39"/><line class="cls-1" y1="363.73" x2="1920" y2="363.73"/><line class="cls-1" y1="369.07" x2="1920" y2="369.07"/><line class="cls-1" y1="374.41" x2="1920" y2="374.41"/><line class="cls-1" y1="379.75" x2="1920" y2="379.75"/><line class="cls-1" y1="385.09" x2="1920" y2="385.09"/><line class="cls-1" y1="390.44" x2="1920" y2="390.44"/><line class="cls-1" y1="395.78" x2="1920" y2="395.78"/><line class="cls-1" y1="401.12" x2="1920" y2="401.12"/><line class="cls-1" y1="406.46" x2="1920" y2="406.46"/><line class="cls-1" y1="411.8" x2="1920" y2="411.8"/><line class="cls-1" y1="417.14" x2="1920" y2="417.14"/><line class="cls-1" y1="422.49" x2="1920" y2="422.49"/><line class="cls-1" y1="427.83" x2="1920" y2="427.83"/><line class="cls-1" y1="433.17" x2="1920" y2="433.17"/><line class="cls-1" y1="438.51" x2="1920" y2="438.51"/><line class="cls-1" y1="443.85" x2="1920" y2="443.85"/><line class="cls-1" y1="449.19" x2="1920" y2="449.19"/><line class="cls-1" y1="454.53" x2="1920" y2="454.53"/><line class="cls-1" y1="459.88" x2="1920" y2="459.88"/><line class="cls-1" y1="465.22" x2="1920" y2="465.22"/><line class="cls-1" y1="470.56" x2="1920" y2="470.56"/><line class="cls-1" y1="475.9" x2="1920" y2="475.9"/><line class="cls-1" y1="481.24" x2="1920" y2="481.24"/><line class="cls-1" y1="486.58" x2="1920" y2="486.58"/><line class="cls-1" y1="491.93" x2="1920" y2="491.93"/><line class="cls-1" y1="497.27" x2="1920" y2="497.27"/><line class="cls-1" y1="502.61" x2="1920" y2="502.61"/><line class="cls-1" y1="507.95" x2="1920" y2="507.95"/><line class="cls-1" y1="513.29" x2="1920" y2="513.29"/><line class="cls-1" y1="518.63" x2="1920" y2="518.63"/><line class="cls-1" y1="523.98" x2="1920" y2="523.98"/><line class="cls-1" y1="529.32" x2="1920" y2="529.32"/><line class="cls-1" y1="534.66" x2="1920" y2="534.66"/><line class="cls-1" y1="540" x2="1920" y2="540"/><line class="cls-1" y1="545.34" x2="1920" y2="545.34"/><line class="cls-1" y1="550.68" x2="1920" y2="550.68"/><line class="cls-1" y1="556.02" x2="1920" y2="556.02"/><line class="cls-1" y1="561.37" x2="1920" y2="561.37"/><line class="cls-1" y1="566.71" x2="1920" y2="566.71"/><line class="cls-1" y1="572.05" x2="1920" y2="572.05"/><line class="cls-1" y1="577.39" x2="1920" y2="577.39"/><line class="cls-1" y1="582.73" x2="1920" y2="582.73"/><line class="cls-1" y1="588.07" x2="1920" y2="588.07"/><line class="cls-1" y1="593.42" x2="1920" y2="593.42"/><line class="cls-1" y1="598.76" x2="1920" y2="598.76"/><line class="cls-1" y1="604.1" x2="1920" y2="604.1"/><line class="cls-1" y1="609.44" x2="1920" y2="609.44"/><line class="cls-1" y1="614.78" x2="1920" y2="614.78"/><line class="cls-1" y1="620.12" x2="1920" y2="620.12"/><line class="cls-1" y1="625.47" x2="1920" y2="625.47"/><line class="cls-1" y1="630.81" x2="1920" y2="630.81"/><line class="cls-1" y1="636.15" x2="1920" y2="636.15"/><line class="cls-1" y1="641.49" x2="1920" y2="641.49"/><line class="cls-1" y1="646.83" x2="1920" y2="646.83"/><line class="cls-1" y1="652.17" x2="1920" y2="652.17"/><line class="cls-1" y1="657.51" x2="1920" y2="657.51"/><line class="cls-1" y1="662.86" x2="1920" y2="662.86"/><line class="cls-1" y1="668.2" x2="1920" y2="668.2"/><line class="cls-1" y1="673.54" x2="1920" y2="673.54"/><line class="cls-1" y1="678.88" x2="1920" y2="678.88"/><line class="cls-1" y1="684.22" x2="1920" y2="684.22"/><line class="cls-1" y1="689.56" x2="1920" y2="689.56"/><line class="cls-1" y1="694.91" x2="1920" y2="694.91"/><line class="cls-1" y1="700.25" x2="1920" y2="700.25"/><line class="cls-1" y1="705.59" x2="1920" y2="705.59"/><line class="cls-1" y1="710.93" x2="1920" y2="710.93"/><line class="cls-1" y1="716.27" x2="1920" y2="716.27"/><line class="cls-1" y1="721.61" x2="1920" y2="721.61"/><line class="cls-1" y1="726.96" x2="1920" y2="726.96"/><line class="cls-1" y1="732.3" x2="1920" y2="732.3"/><line class="cls-1" y1="737.64" x2="1920" y2="737.64"/><line class="cls-1" y1="742.98" x2="1920" y2="742.98"/><line class="cls-1" y1="748.32" x2="1920" y2="748.32"/><line class="cls-1" y1="753.66" x2="1920" y2="753.66"/><line class="cls-1" y1="759" x2="1920" y2="759"/><line class="cls-1" y1="764.35" x2="1920" y2="764.35"/><line class="cls-1" y1="769.69" x2="1920" y2="769.69"/><line class="cls-1" y1="775.03" x2="1920" y2="775.03"/><line class="cls-1" y1="780.37" x2="1920" y2="780.37"/><line class="cls-1" y1="785.71" x2="1920" y2="785.71"/><line class="cls-1" y1="791.05" x2="1920" y2="791.05"/><line class="cls-1" y1="796.4" x2="1920" y2="796.4"/><line class="cls-1" y1="801.74" x2="1920" y2="801.74"/><line class="cls-1" y1="807.08" x2="1920" y2="807.08"/><line class="cls-1" y1="812.42" x2="1920" y2="812.42"/><line class="cls-1" y1="817.76" x2="1920" y2="817.76"/><line class="cls-1" y1="823.1" x2="1920" y2="823.1"/><line class="cls-1" y1="828.45" x2="1920" y2="828.45"/><line class="cls-1" y1="833.79" x2="1920" y2="833.79"/><line class="cls-1" y1="839.13" x2="1920" y2="839.13"/><line class="cls-1" y1="844.47" x2="1920" y2="844.47"/><line class="cls-1" y1="849.81" x2="1920" y2="849.81"/><line class="cls-1" y1="855.15" x2="1920" y2="855.15"/><line class="cls-1" y1="860.5" x2="1920" y2="860.5"/><line class="cls-1" y1="865.84" x2="1920" y2="865.84"/><line class="cls-1" y1="871.18" x2="1920" y2="871.18"/><line class="cls-1" y1="876.52" x2="1920" y2="876.52"/><line class="cls-1" y1="881.86" x2="1920" y2="881.86"/><line class="cls-1" y1="887.2" x2="1920" y2="887.2"/><line class="cls-1" y1="892.54" x2="1920" y2="892.54"/><line class="cls-1" y1="897.89" x2="1920" y2="897.89"/><line class="cls-1" y1="903.23" x2="1920" y2="903.23"/><line class="cls-1" y1="908.57" x2="1920" y2="908.57"/><line class="cls-1" y1="913.91" x2="1920" y2="913.91"/><line class="cls-1" y1="919.25" x2="1920" y2="919.25"/><line class="cls-1" y1="924.59" x2="1920" y2="924.59"/><line class="cls-1" y1="929.94" x2="1920" y2="929.94"/><line class="cls-1" y1="935.28" x2="1920" y2="935.28"/><line class="cls-1" y1="940.62" x2="1920" y2="940.62"/><line class="cls-1" y1="945.96" x2="1920" y2="945.96"/><line class="cls-1" y1="951.3" x2="1920" y2="951.3"/><line class="cls-1" y1="956.64" x2="1920" y2="956.64"/><line class="cls-1" y1="961.99" x2="1920" y2="961.99"/><line class="cls-1" y1="967.33" x2="1920" y2="967.33"/><line class="cls-1" y1="972.67" x2="1920" y2="972.67"/><line class="cls-1" y1="978.01" x2="1920" y2="978.01"/><line class="cls-1" y1="983.35" x2="1920" y2="983.35"/><line class="cls-1" y1="988.69" x2="1920" y2="988.69"/><line class="cls-1" y1="994.03" x2="1920" y2="994.03"/><line class="cls-1" y1="999.38" x2="1920" y2="999.38"/><line class="cls-1" y1="1004.72" x2="1920" y2="1004.72"/><line class="cls-1" y1="1010.06" x2="1920" y2="1010.06"/><line class="cls-1" y1="1015.4" x2="1920" y2="1015.4"/><line class="cls-1" y1="1020.74" x2="1920" y2="1020.74"/><line class="cls-1" y1="1026.08" x2="1920" y2="1026.08"/><line class="cls-1" y1="1031.43" x2="1920" y2="1031.43"/><line class="cls-1" y1="1036.77" x2="1920" y2="1036.77"/><line class="cls-1" y1="1042.11" x2="1920" y2="1042.11"/><line class="cls-1" y1="1047.45" x2="1920" y2="1047.45"/><line class="cls-1" y1="1052.79" x2="1920" y2="1052.79"/><line class="cls-1" y1="1058.13" x2="1920" y2="1058.13"/><line class="cls-1" y1="1063.48" x2="1920" y2="1063.48"/><line class="cls-1" y1="1068.82" x2="1920" y2="1068.82"/><line class="cls-1" y1="1074.16" x2="1920" y2="1074.16"/><line class="cls-1" y1="1079.5" x2="1920" y2="1079.5"/></g></g><g id="crypt"><path class="cls-2" d="M1915.28,552.88a124.17,124.17,0,0,0,0-28.45"/><path class="cls-3" d="M1915.28,552.88h-6c-.13,1-.26,1.91-.41,2.87H1895.1c-.21,1.19-.44,2.37-.68,3.55h-22.69A74.07,74.07,0,0,1,1860.18,583L1873,602.86c-.85,1-1.72,1.95-2.61,2.89l7.4,12.31c-.85.87-1.72,1.71-2.6,2.55l3.42,5.49a113.34,113.34,0,0,0,13.32-14.67l6.28,4.81a94.74,94.74,0,0,0,20.59-38.86L1910.9,574a124,124,0,0,0,4.38-21.12"/><path class="cls-2" d="M1880.42,452.54a108.06,108.06,0,0,0-22.87-16.9"/><path class="cls-3" d="M1919.34,501.7l-7.71,3.76a123,123,0,0,1,3.69,19h-5.66c-.11-1.09-.24-2.17-.38-3.26H1895.1c-.17-1-.36-2-.56-3H1872a74.16,74.16,0,0,0-11.77-24.57l12.53-19.85c-.49-.56-1-1.11-1.48-1.65l7.22-11.45c-.69-.76-1.39-1.52-2.1-2.26l4-5.89a113.88,113.88,0,0,1,12.66,14.5l6.84-5.5A117.74,117.74,0,0,1,1919.34,501.7Z"/><rect class="cls-3" x="1717.09" y="491.34" width="7.19" height="6.91"/><rect class="cls-3" x="1717.09" y="583.01" width="7.19" height="6.32"/><rect class="cls-3" x="1755.14" y="491.34" width="6.82" height="6.91"/><rect class="cls-3" x="1808.77" y="491.34" width="6.08" height="6.91"/><rect class="cls-3" x="1755.14" y="583.01" width="6.82" height="6.32"/><rect class="cls-3" x="1808.77" y="583.01" width="6.08" height="6.32"/><path class="cls-4" d="M1814.85,586.23a43.91,43.91,0,0,0,30.37-22.67"/><path class="cls-3" d="M1848.85,558.94l-4.65-3.32a42.12,42.12,0,0,1-3,5.88l5.14,2.64A50.66,50.66,0,0,0,1848.85,558.94Z"/><path class="cls-4" d="M1844.35,515a43.71,43.71,0,0,0-29.5-21.14"/><path class="cls-3" d="M1843.6,521.89l5.19-2.48a50.57,50.57,0,0,0-2.62-5.39l-5.29,2.83A40.71,40.71,0,0,1,1843.6,521.89Z"/><path class="cls-4" d="M1847.73,558.14a50,50,0,0,0-.7-37.89"/><line class="cls-5" x1="1724.28" y1="586.57" x2="1755.14" y2="586.57"/><line class="cls-5" x1="1761.96" y1="586.57" x2="1808.77" y2="586.57"/><line class="cls-5" x1="1717.46" y1="469.8" x2="1763.25" y2="469.8"/><line class="cls-5" x1="1721.14" y1="551.05" x2="1721.14" y2="583.01"/><line class="cls-3" x1="1721.33" y1="551.05" x2="1721.33" y2="583.01"/><line class="cls-5" x1="1721.33" y1="498.25" x2="1721.33" y2="529.75"/><line class="cls-5" x1="1721.14" y1="498.25" x2="1721.14" y2="529.75"/><line class="cls-5" x1="1724.28" y1="494.3" x2="1755.14" y2="494.3"/><line class="cls-5" x1="1761.96" y1="494.3" x2="1808.77" y2="494.3"/><polyline class="cls-3" points="1763.25 469.81 1763.25 453.16 1760.12 453.16 1760.12 435.05 1763.25 435.05 1763.25 416.17 1771.36 416.17 1749.84 416.17 1749.84 418.83 1731.31 418.83 1731.31 416.17 1717.46 416.17 1717.46 435.05 1720.13 435.05 1720.13 453.16 1717.46 453.16 1717.46 469.81"/><line class="cls-5" x1="1525.77" y1="369.57" x2="1600.8" y2="368.91"/><polygon class="cls-3" points="1645.31 454.5 1645.31 470.4 1599.61 470.4 1599.61 454.5 1601.82 454.5 1601.82 436.02 1599.61 436.02 1599.61 417.25 1614.45 417.25 1614.45 419.43 1632.49 419.43 1632.49 417.25 1645.31 417.25 1645.31 436.02 1642.73 436.02 1642.73 454.5 1645.31 454.5"/><rect class="cls-3" x="1601.63" y="492.52" width="5.53" height="6.72"/><rect class="cls-3" x="1639.14" y="492.52" width="5.62" height="6.72"/><rect class="cls-3" x="1601.63" y="583.8" width="5.53" height="6.32"/><rect class="cls-3" x="1639.14" y="583.8" width="5.62" height="6.32"/><polygon class="cls-3" points="1758.28 629.71 1758.28 648.95 1761.04 648.95 1761.04 667.27 1748.06 667.27 1748.06 665.4 1729.95 665.4 1729.95 667.47 1716.44 667.47 1716.44 648.95 1718.47 648.95 1718.47 629.71 1716.44 629.71 1716.44 611.46 1761.04 611.46 1761.04 629.71 1758.28 629.71"/><polygon class="cls-3" points="1612.33 665.32 1628.38 665.32 1628.38 667.9 1644.02 667.9 1644.02 649.42 1641.99 649.42 1641.99 630.09 1644.02 630.09 1644.02 611.86 1599.24 611.86 1599.24 630.09 1601.54 630.09 1601.54 649.42 1599.24 649.42 1599.24 667.9 1612.33 667.9 1612.33 665.32"/><rect class="cls-3" x="1464.89" y="492.52" width="6.63" height="6.72"/><rect class="cls-3" x="1482.58" y="492.52" width="4.98" height="6.72"/><rect class="cls-3" x="1519.63" y="492.52" width="5.71" height="6.72"/><rect class="cls-3" x="1482.58" y="521.89" width="4.98" height="7.51"/><rect class="cls-3" x="1464.89" y="583.8" width="6.63" height="6.32"/><rect class="cls-3" x="1482.58" y="583.8" width="4.98" height="6.32"/><rect class="cls-3" x="1519.63" y="583.8" width="5.71" height="6.32"/><polygon class="cls-3" points="1525.34 612.45 1525.34 630.45 1522.94 630.45 1522.94 650.33 1525.34 650.33 1525.34 668.36 1481.76 668.36 1481.76 662.63 1456.78 662.63 1456.78 617.68 1464.3 617.68 1464.74 612.45 1471.9 612.45 1471.9 617.68 1482.55 617.68 1482.55 612.45 1525.34 612.45"/><polygon class="cls-3" points="1472.13 462.82 1472.13 470.6 1465.84 470.6 1465.84 462.82 1459.18 462.82 1459.18 424.96 1483.74 424.96 1483.74 417.25 1496.32 417.25 1496.32 419.92 1513.24 419.92 1513.24 417.25 1525.34 417.25 1525.34 436.02 1522.76 436.02 1522.76 454.3 1525.34 454.3 1525.34 470.6 1482.77 470.6 1482.77 462.82 1472.13 462.82"/><rect class="cls-3" x="1092.52" y="808.5" width="5.53" height="5.72"/><rect class="cls-3" x="1137.23" y="808.5" width="5.53" height="5.72"/><polyline class="cls-3" points="1092.52 853.58 1098.05 853.58 1098.05 858.82 1092.52 858.82 1092.52 853.48"/><rect class="cls-3" x="1137.23" y="853.58" width="5.53" height="5.24"/><polygon class="cls-3" points="1172.98 715.38 1239.88 715.38 1239.88 859.21 1225.78 859.21 1225.78 886.87 1184.78 886.87 1184.78 858.82 1172.98 858.82 1172.98 715.38"/><rect class="cls-3" x="1292.68" y="584.39" width="4.52" height="5.17"/><rect class="cls-3" x="1421.86" y="584.59" width="5.99" height="6.91"/><line class="cls-5" x1="1413.57" y1="587.26" x2="1421.86" y2="587.26"/><rect class="cls-3" x="1292.68" y="494.01" width="4.61" height="4.94"/><polygon class="cls-3" points="1413.57 591.51 1413.57 584.59 1404.66 584.59 1405.04 591.51 1369.71 591.51 1369.71 584.79 1362.36 584.79 1362.36 591.51 1354.78 591.51 1354.78 598.42 1297.19 598.42 1297.19 591.51 1290.26 591.51 1290.26 584.39 1286.04 584.39 1286.04 566.41 1273.23 566.41 1273.23 677.45 1410.16 677.45 1410.16 662.63 1433.75 662.63 1433.75 617.59 1428.05 617.59 1427.67 612.35 1421.43 612.35 1420.98 617.59 1411.63 617.59 1411.63 591.51 1413.57 591.51"/><rect class="cls-3" x="1354.78" y="584.3" width="5.23" height="4.64"/><rect class="cls-3" x="1417.44" y="477.41" width="4.98" height="6.32"/><rect class="cls-3" x="1422.25" y="492.13" width="5.87" height="7.31"/><rect class="cls-3" x="1354.92" y="493.93" width="5.05" height="5.1"/><line class="cls-5" x1="1414.49" y1="493.61" x2="1422.25" y2="493.61"/><rect class="cls-3" x="1464.89" y="521.89" width="6.63" height="7.51"/><rect class="cls-3" x="1464.89" y="553.96" width="6.63" height="6.82"/><line class="cls-5" x1="1424.72" y1="499.44" x2="1424.72" y2="521.89"/><line class="cls-5" x1="1424.72" y1="560.78" x2="1424.72" y2="584.59"/><polygon class="cls-3" points="993.12 860.2 1008.6 860.2 1008.6 887.07 1048.04 887.07 1048.04 860 1061.49 860 1061.49 716.17 993.12 716.17 993.12 860.2"/><rect class="cls-3" x="1092.52" y="715.97" width="5.53" height="7.01"/><rect class="cls-3" x="1092.52" y="762.4" width="5.53" height="5.42"/><rect class="cls-3" x="1137.23" y="715.97" width="5.53" height="7.01"/><rect class="cls-3" x="1137.23" y="762.4" width="5.53" height="5.42"/><polygon class="cls-3" points="823.02 607.9 823.02 621.14 798.33 621.14 798.33 664.61 823.39 664.61 823.39 677.75 961.61 677.75 961.61 607.9 823.02 607.9"/><line class="cls-5" x1="1227.35" y1="669.55" x2="1227.35" y2="715.38"/><polygon class="cls-3" points="1206.89 669.55 1206.89 661.21 1225.02 642.26 1231.49 641.89 1231.49 669.55 1206.89 669.55"/><polygon class="cls-3" points="1152.32 619.78 1179.71 648.45 1172.68 655.11 1178.7 661.24 1178.7 669.55 1137.78 669.55 1137.78 628.55 1142.64 628.55 1141.87 623.6 1147.56 621.38 1149.19 623.13 1152.32 619.78"/><polygon class="cls-3" points="1191.6 571.85 1191.96 566.41 1231.49 566.41 1231.49 612.36 1226.86 612.36 1219.71 604.37 1212.32 612.6 1186.08 583.73 1189.97 579.91 1187 578.26 1189.52 571.85 1191.6 571.85"/><polygon class="cls-3" points="1057.23 661.27 1060.77 657.48 1053.55 650.04 1081.13 619.78 1085.4 624.81 1087.12 622.03 1093.08 624.69 1092.49 628.45 1099.64 628.45 1099.64 669.94 1057.23 669.94 1057.23 661.27"/><polygon class="cls-3" points="1008.72 642.97 1028.33 664.26 1028.33 669.94 1001.78 669.94 1001.78 642.97 1008.72 642.97"/><line class="cls-5" x1="1004.18" y1="669.94" x2="1004.18" y2="681.4"/><line class="cls-5" x1="1005.19" y1="669.94" x2="1005.19" y2="681.4"/><line class="cls-5" x1="1004.18" y1="704.32" x2="1004.18" y2="716.17"/><line class="cls-5" x1="1005.19" y1="704.32" x2="1005.19" y2="716.17"/><polygon class="cls-3" points="1048.17 578.05 1045.89 571.75 1043.15 572.24 1043.15 567.21 1001.78 567.21 1001.78 613.14 1010.53 613.14 1015.09 608.26 1019.99 613.14 1021.28 613.14 1048 583.98 1044.56 579.99 1048.17 578.05"/><path class="cls-3" d="M1138,588.43a42.52,42.52,0,0,1-5.39,2.62l-1.71-4.9a39.26,39.26,0,0,0,4.8-2.32Z"/><path class="cls-3" d="M1155.26,557.59l4.85,1.43a51.2,51.2,0,0,1-2.42,7l-4.52-2.19A43.12,43.12,0,0,0,1155.26,557.59Z"/><path class="cls-3" d="M1151.56,525.49l4.77-2.89a51.59,51.59,0,0,1,2.8,6.67l-5,2A44.35,44.35,0,0,0,1151.56,525.49Z"/><path class="cls-3" d="M1129.59,506.07l1.87-6a44.07,44.07,0,0,1,5.56,2.52l-2.57,5.65A37.3,37.3,0,0,0,1129.59,506.07Z"/><path class="cls-3" d="M1099.77,500.89l2.33,6.14a37.22,37.22,0,0,1,5-1.77l-1.56-6.39A42.52,42.52,0,0,0,1099.77,500.89Z"/><path class="cls-3" d="M1073.91,530.28l5.72,2.13a45.1,45.1,0,0,1,2.43-6l-5.4-3.07A50.6,50.6,0,0,0,1073.91,530.28Z"/><path class="cls-3" d="M1105.34,592.62l1.33-5.26a39,39,0,0,1-5.31-2l-2,5.08A42.78,42.78,0,0,0,1105.34,592.62Z"/><path class="cls-3" d="M1075.71,566.12l5.15-2.46a44,44,0,0,1-2-6.16l-5.54,1.62A52.19,52.19,0,0,0,1075.71,566.12Z"/><polygon class="cls-3" points="1103.4 423.15 1109.38 429.13 1127.55 428.77 1133.85 421.35 1133.85 417.42 1129.18 412.91 1122.36 419.92 1114.7 419.92 1107.35 412.31 1103.4 416.53 1103.4 423.15"/><polygon class="cls-3" points="1173.9 431.98 1180 425.8 1180 418.24 1137.23 418.24 1137.23 463.01 1143.34 463.48 1143.02 466.32 1148.42 468.45 1149.71 467.07 1152.01 469.7 1180.57 439.43 1173.9 431.98"/><polygon class="cls-3" points="1226.47 445.8 1206.98 424.64 1206.98 418.24 1231.77 418.24 1231.77 445.8 1226.47 445.8"/><polygon class="cls-3" points="1192.14 515.74 1188.09 515.74 1186.41 510.86 1188.39 509.1 1185.56 505.77 1213.61 475.19 1220.12 482.44 1225.92 476.52 1231.95 476.52 1231.95 521.37 1191.74 521.37 1192.14 515.74"/><polygon class="cls-3" points="1008.35 447.18 1029.01 424.25 1028.73 418.24 1002.15 418.24 1002.15 447.18 1008.35 447.18"/><polygon class="cls-3" points="1015.78 484.56 1008.57 477.12 1002.15 477.12 1002.15 521.76 1043.34 521.76 1043.34 516.6 1046.51 517.88 1049.08 512.07 1045.92 510.12 1049.16 505.96 1022.53 477.65 1015.78 484.56"/><polygon class="cls-3" points="1063.07 432.92 1057.18 439.55 1083.44 468.69 1086.57 464.21 1088.37 468.06 1094.57 465.67 1094.57 463.58 1099.45 463.58 1099.45 418.24 1056.68 418.24 1057.04 425.79 1063.02 431.84 1063.07 432.92"/><line class="cls-5" x1="1277.03" y1="379.91" x2="1277.03" y2="381.79"/><polygon class="cls-3" points="1434.48 424.96 1410.07 424.96 1410.07 408.16 1273.42 408.16 1273.42 520.78 1285.4 520.78 1285.4 499.86 1290.19 499.49 1290.19 492.13 1297.65 492.13 1297.65 484.43 1355.07 484.43 1355.07 492.13 1362.83 492.13 1362.83 499.44 1370.18 499.44 1370.18 492.13 1405.28 492.13 1405.28 499.44 1414.49 499.44 1414.49 492.13 1411.63 492.13 1411.63 470.6 1428.13 470.6 1428.13 462.69 1434.48 462.69 1434.48 424.96"/><line class="cls-5" x1="1240.98" y1="351.96" x2="1242.27" y2="351.96"/><line class="cls-5" x1="1263.56" y1="351.96" x2="1265.95" y2="351.96"/><rect class="cls-3" x="1092.08" y="226.2" width="6.08" height="7.01"/><rect class="cls-3" x="1092.08" y="272.24" width="6.08" height="7.01"/><rect class="cls-3" x="1136.68" y="226.2" width="5.71" height="7.01"/><line class="cls-5" x1="1136.68" y1="272.24" x2="1136.68" y2="279.25"/><polyline class="cls-3" points="1136.68 279.25 1142.39 279.25 1142.39 272.24 1136.68 272.24"/><line class="cls-5" x1="1136.68" y1="365.09" x2="1172.98" y2="365.09"/><rect class="cls-3" x="1092.08" y="320.54" width="6.08" height="5.53"/><rect class="cls-3" x="1092.08" y="365.09" width="6.08" height="7.31"/><rect class="cls-3" x="1136.68" y="365.09" width="5.71" height="7.31"/><line class="cls-5" x1="1062.5" y1="366.18" x2="1092.08" y2="366.18"/><line class="cls-5" x1="1130.96" y1="366.18" x2="1136.68" y2="366.18"/><polygon class="cls-3" points="1048.77 225.61 1048.77 199.04 1032.67 199.04 1032.67 196.17 1006.39 196.17 1006.39 225.61 993.67 225.61 993.67 373 1062.5 373 1062.5 225.61 1048.77 225.61"/><path class="cls-3" d="M874.59,788.19a12.46,12.46,0,0,0-1,16.73,10.54,10.54,0,0,0,15.6,1.05,12.46,12.46,0,0,0,1-16.73,10.93,10.93,0,0,0-2.67-2.37V704.32h73.9v11.85h9.4v144H957v7.66l-24.51,0v11.27H912.4v42.28h20.09v9.68h24.32v7.11h15.12v49.19h22.48V938.24h14.19V911.76h39.34v25.89h16.9l4.91,51.66h13.48l3.75-51.66h12.82c.86,10.76,9.7,18.73,19.74,17.8,8.84-.81,15.85-8.33,16.61-17.8H1147l4.76,51.26H1164l4.18-51.26h16.62V911h40.54v26.58h14.56v48.9H1264v-49.2h13.09v-6.52h23.18v-8.49h19.2V876.6h-19.26v-9.68H1278v-8.5h-14V704.52h145.77V720h6.45v27.17h11.06v19.56h36.49V747.19h8.66V720.12h8.2v-7.5h44.57v7.5h6V746.8h13.26v19.36h35.57V746.8h9V719.53h9.41v-7.41h44.92v7.41h7.22V746.6h8.85v19.56h37.78V746.6h10v-27h7.92V712h46.08v7.12h25V714.2h22.57v-7.41h7.56V670.63h-7.56V667h-22.11V649h2.21V629.71h-2.21v-19h26.44l14.2-3.53,12.62,19.46a15.77,15.77,0,0,0,3.15-1.15l7.54,12.65c1.13-.59,2.26-1.2,3.38-1.83l3.12,5.25a103.55,103.55,0,0,1-19.22,8.08V666H1827.2v52.65h12v42.28H1832v13.83h-3v7.81h-40.54v-7.51h-28.94V782H1718.1v-6.62h-77.77v7h-41v-6.52h-77.22v7.51h-40.55l.49-7.31h-76l-.48,7.6h-5.93v23.93h5.72v51h-46v-5.14h-20.22v5.44h-7.47v80.59h6.27v45.6h-7v11.11l-8.11.58v7h-42.57v-8.69h-57.7l-.48,9h-6.71v4.33h-16.59c-7,34.3-32,61.12-63.93,68.77-45.39,10.85-90.4-19.8-100.53-68.47h-15.55l.36-4.25h-6.73v-9H951.56v8.7H909v-6.92h-9.58v-9.88l-6.18-.47V941.1h6.45V860.2h-7.27v-6.13H870v6.13H828.89l-.34-6.13h-4.42V778H794.46V767h8.84V746.6h12.63V721.7h7.83V704.91h51.78v70h-7.37v13.24h6.42"/><polygon class="cls-3" points="705.72 632.63 705.72 613.93 751.89 613.93 751.89 621.54 774.37 621.54 774.37 664.8 751.54 664.8 751.13 670.93 739.94 670.93 738.68 669.25 720.16 669.25 719.06 671.03 705.72 671.03 705.72 655.7 707.47 655.7 707.47 632.63 705.72 632.63"/><polygon class="cls-3" points="589.35 655.82 589.35 632.81 587.25 632.81 587.45 613.83 632.65 613.83 632.65 632.81 630.07 632.81 630.07 655.82 632.65 655.82 632.65 671.13 619.16 671.13 619.18 669.35 599.11 669.35 599.09 671.13 586.83 671.13 587 655.82 589.35 655.82"/><line class="cls-5" x1="364.42" y1="273.52" x2="364.42" y2="374.48"/><polyline class="cls-3" points="275.06 408.16 357.88 408.16 357.88 416.95 362.86 416.95 362.86 434.83 360.78 434.83 360.78 456.23 362.86 456.23 362.86 475.14 355.39 475.14 355.39 468.03 348.92 468.03 348.92 461.8 329.23 461.8 329.23 468.03 321.47 468.03 321.01 475.34 289.7 475.34 289.7 519.79 266.66 519.79 266.66 527.89 214.69 527.89 214.69 512.38 146.02 512.38 146.02 529.27 126.97 529.27 126.97 331.51 160.79 331.51 160.79 320.94 165.49 320.94 165.49 253.61 160.42 253.29 160.42 240.33 154.25 240.33 154.25 194.54 195.99 194.56 195.99 201.61 205.97 201.61 205.97 208.03 231.19 208.03 231.19 216.95 231.19 217.11 228.51 217.11 228.51 254.75 212.57 254.75 212.57 262.75 206.21 262.75 206.21 320.25 213.17 320.25 213.17 328.15 229.25 328.15 229.25 374.97 201.42 374.97 201.42 414.68 275.87 414.68 275.87 408.16"/><rect class="cls-3" x="311.63" y="517.02" width="8.11" height="7.61"/><polygon class="cls-3" points="311.63 578.38 319.74 578.33 319.74 569.77 311.63 569.77 311.63 578.38"/><rect class="cls-3" x="356.04" y="517.02" width="7.74" height="7.61"/><polygon class="cls-3" points="363.78 569.77 363.78 578.07 356.04 578.11 356.04 569.77 363.78 569.77"/><rect class="cls-3" x="432.7" y="517.02" width="7.37" height="7.61"/><polygon class="cls-3" points="432.7 577.65 440.07 577.61 440.07 569.77 432.7 569.77 432.7 577.65"/><rect class="cls-3" x="470.85" y="517.02" width="6.45" height="7.61"/><rect class="cls-3" x="506.88" y="517.02" width="7.1" height="7.61"/><polygon class="cls-3" points="513.97 569.77 513.97 577.16 506.88 577.21 506.88 569.77 513.97 569.77"/><polygon class="cls-3" points="477.3 577.38 477.3 569.77 470.85 569.77 470.85 577.42 477.3 577.38"/><polyline class="cls-3" points="364.42 273.52 353.44 273.52 353.44 274.96 361.75 274.96 361.75 333.19 340.38 333.19 340.38 320.84 317.15 320.84 317.15 305.23 289.14 305.23 271.45 305.23 271.45 320.25 265.65 320.25 265.65 328.15 250.81 328.15 250.81 374.97 275.87 374.97 275.87 383.27 275.61 383.27 357.88 383.27 357.88 374.48 364.42 374.48"/><rect class="cls-3" x="587.32" y="515.64" width="7.37" height="7.71"/><rect class="cls-3" x="587.32" y="568.69" width="7.37" height="7.71"/><rect class="cls-3" x="625.65" y="515.64" width="6.63" height="7.71"/><rect class="cls-3" x="705.63" y="515.64" width="7.19" height="7.71"/><rect class="cls-3" x="743.96" y="515.64" width="7.37" height="7.71"/><rect class="cls-3" x="743.96" y="568.69" width="7.37" height="7.71"/><rect class="cls-3" x="705.63" y="568.69" width="7.19" height="7.71"/><rect class="cls-3" x="625.65" y="568.69" width="6.63" height="7.71"/><line class="cls-3" x1="588.98" y1="221.66" x2="684.62" y2="221.66"/><polygon class="cls-3" points="961.97 409.55 961.97 479.68 822.84 479.68 822.84 465.26 797.77 465.26 797.77 424.96 822.28 424.96 822.28 409.55 961.97 409.55"/><rect class="cls-3" x="824.98" y="514.55" width="5.78" height="7.71"/><rect class="cls-3" x="824.98" y="567.7" width="5.78" height="7.61"/><rect class="cls-3" x="866.79" y="514.55" width="6.73" height="7.71"/><rect class="cls-3" x="908.62" y="514.55" width="7.65" height="7.71"/><rect class="cls-3" x="954.97" y="514.55" width="7" height="7.71"/><rect class="cls-3" x="954.97" y="567.7" width="7" height="7.61"/><rect class="cls-3" x="908.62" y="567.7" width="7.65" height="7.61"/><rect class="cls-3" x="866.79" y="567.7" width="6.73" height="7.61"/><path class="cls-3" d="M800.54,167.13H943l63.18-.67v6h42.2V143.22h18.13l2.66-50.57h13.42l3.92,50.57h14.13c.24-9.65,7.48-17.41,16.48-17.67,9.36-.27,17.16,7.64,17.41,17.67h14.73l2.42-50.57h14.46l3.28,50.57h16.63v29.84h17.69v25.29h-17.14v27.26H1173V372h68V225.61h-14.37V198.35h-18.8V173.06h18.25V144.21h14.19V102.13h24.23v42.08h13.08v8.5H1302v9.68h19.72v45.44H1302v9h-24.46l.41,8.4h-12V371.84h7.93v8.07h65.88V302.86h-34.09V276.19H1346L1348.7,249v-3h8.19l0,.29,3.61,30.23h3.84V379.91h45.71V366.08h8.38V339.8h11.24V321h35.39V339.8h10.22v26.28h7l.44,7.11h43v-6.91h9V340h10.32V322.22h36.49V340h11.61v26.28h7.64v6.81h43.77v-7.31h7.56V339.41h10.5v-18h36.12v18h12.63v25.78h7.55v7.41h43.86v-5H1781v5h30.57V376h7.74v34.77h-7.74v5.43h-24v52.16h18.52l5-.49h10.75a65.17,65.17,0,0,1,6.54,1.91l13-19c.86.38,1.71.76,2.56,1.17l8.72-12.23c.64.37,1.28.75,1.91,1.14l3-5.16a103.77,103.77,0,0,0-19.16-8.17l.51-12.69h-9.58V368.45h10.23v-45H1834V310.21H1830v-6.36h-39.89V311h-10v3.26h-7.92V311h-10.69v-6.82l-41,.22v6.8h-78.65l-.43-6.32h-40.16v6.32H1524V305h-43.22v5H1477v-3.85h-15.14v5.93h-49v-7.22h-6V279.45h5.9V234.77h-7.17v-7.18h-41.21v6.91h-8.2l.37,5.84h-7.83V234.5h-8.85v-7.26l-5.43.36V144.51h4.42V99.15h-6.27V89.43h-8.2V81.19h-42.84v8.3h-56.3v-8.1h-8.48V75.46h-16.14V75.3c-8.3-49.36-52.35-82.15-98.39-73.25-35,6.76-62.33,36.24-68.42,73.8h-13.61l-.51,5.44h-8l-.52,7.8H953.59V81.88h-43v7.8H872.73l-.21-2.27h-72v79.72"/><line class="cls-5" x1="1098.16" y1="366.18" x2="1103.51" y2="366.18"/><path class="cls-3" d="M362.86,713.8v43.07H339.08v30.45H269.83c-2.86-12.32-11.61-22.07-23-25.59V714h29.39v-7.51h78.49v7.31Z"/><polygon class="cls-3" points="631.82 722.3 640.67 722.3 640.67 746.79 651.91 746.79 651.91 767.64 657.81 767.64 657.81 778.6 631.64 778.6 631.64 786.11 585.57 786.11 585.57 779.2 563.55 779.2 563.55 768.53 567.78 768.53 567.78 746.99 578.47 746.99 578.47 722.59 586.67 722.59 586.67 713.6 631.82 713.6 631.82 722.3"/><polygon class="cls-3" points="589.81 455.76 589.81 434.01 587.32 434.01 587.32 416.66 601.5 416.66 601.5 419.03 618.9 419.03 618.9 416.66 632.19 416.66 632.19 434.01 629.71 434.01 629.71 455.76 632.19 455.76 632.19 474.05 587.32 474.05 587.32 455.76 589.81 455.76"/><polygon class="cls-3" points="756.86 722.2 756.86 746.6 767.74 746.6 767.74 766.95 779.35 766.95 779.35 778.21 750.32 778.21 750.32 784.93 705.54 786.02 705.54 778.6 682.04 778.6 682.04 767.64 687.39 767.64 687.39 746.79 698.08 746.79 698.08 722.2 705.71 722.2 705.71 713.01 750.97 713.01 750.97 722.2 756.86 722.2"/><rect class="cls-3" x="1482.58" y="553.96" width="4.98" height="6.82"/><rect class="cls-3" x="1421.77" y="521.89" width="5.9" height="7.51"/><rect class="cls-3" x="1421.77" y="553.96" width="5.9" height="6.82"/><rect class="cls-3" x="1136.68" y="320.54" width="5.71" height="5.53"/><polyline class="cls-3" points="751.7 416.86 738.74 416.86 738.74 417.84 719.29 417.84 719.29 416.86 705.82 416.86 705.82 434.58 708.39 434.58 708.39 456.09 705.82 456.09 705.82 472.77 751.7 472.77 751.7 465.26 774.37 465.26 774.37 424.96 751.7 424.96 751.7 415.07 750.59 415.07 750.59 416.86"/><polyline class="cls-3" points="515.17 455.38 515.17 474.55 470.88 474.55 470.88 467.14 464.12 467.14 464.12 461.11 447.64 461.11 447.64 467.14 440.4 467.14 440.4 474.55 432.89 474.55 432.89 455.91 435.19 455.91 435.19 434.14 432.89 434.14 432.89 416.34 439.98 416.34 439.98 411.32 508.17 411.32 508.17 416.91 515.47 416.91 515.17 416.91 515.17 433.69 515.17 434.01 511.95 434.01 511.95 455.76 515.17 455.76"/><path class="cls-2" d="M1857.11,641.52a108.1,108.1,0,0,0,21.49-15.42"/><line class="cls-3" x1="779.35" y1="778.21" x2="794.46" y2="778.01"/><polygon class="cls-3" points="802.39 192.48 912.4 189.06 912.4 207.43 933.32 207.43 933.32 217.12 956.7 217.12 956.7 224.93 970.45 225.8 970.45 373.29 962.38 373.29 962.38 382.97 897.38 382.97 897.38 380.7 871.49 380.7 871.49 382.97 822.47 382.97 822.47 366.87 814.54 366.87 814.54 341.09 803.86 341.09 803.86 323.41 800.45 323.41 800.45 299.9 802.39 299.9 802.39 192.48"/><line class="cls-3" x1="657.81" y1="778.6" x2="682.04" y2="778.6"/><line class="cls-3" x1="563.55" y1="779.2" x2="536.92" y2="779.2"/><polygon class="cls-3" points="681.3 324 681.3 299.9 681.3 299.9 695.96 299.9 695.96 287.84 753.36 287.84 753.36 222.35 749.96 222.35 749.96 216.23 770.5 216.23 770.5 323.41 768.66 323.41 768.66 341.09 758.52 341.09 758.52 366.87 751.7 366.87 751.34 366.87 751.7 374.97 705.82 374.97 705.82 367.46 696.42 367.46 696.42 341.88 686.47 341.88 686.47 324 681.3 324"/><polygon class="cls-3" points="638.74 367.96 638.74 342.08 647.95 342.08 647.95 324 653.66 324 653.66 299.9 639.93 299.9 639.93 294.17 573.87 294.17 570.27 298.02 570.27 302.76 562.39 302.76 557.19 307.94 557.19 324.3 569.81 324.3 569.81 342.37 579.67 342.37 579.67 367.96 587.32 367.96 587.32 375.37 631.84 375.37 631.84 367.96 638.74 367.96"/><polygon class="cls-3" points="543.27 293.23 543.27 307.33 546.41 307.33 546.41 324.2 532.4 324.2 532.4 342.77 521.34 342.77 521.34 368.09 516 368.09 516 375.86 508.17 375.86 508.17 382.28 440.79 382.28 440.79 374.48 433.07 374.48 433.07 332.5 455.83 332.5 455.83 320.42 486.45 300.49 496.65 300.49 496.65 288.04 516.56 288.04 516.56 291.15 521.47 291.15 521.47 293.23 543.27 293.23"/><polyline class="cls-3" points="684.62 221.66 588.98 221.66 588.98 204.07 573.31 204.07 573.31 202 574.97 202 574.97 163.08 574.97 163.08 560.52 163.55 518.21 164.93 518.21 204.27 538.67 204.27 538.67 269.09 536.97 271.05 516.84 271.05 516.84 276.78 496.47 276.78 496.47 261.96 455.83 261.96 455.83 244.58 432.61 244.58 432.61 234.4 416.3 234.4 416.3 206.45 378.34 206.45 378.34 234.4 363.6 234.4 363.6 245.27 340.38 245.27 340.38 262.46 317.15 262.46 317.15 279.15 289.14 279.15 271.45 279.15 271.45 262.75 265.73 262.75 265.73 254.75 248.51 254.75 248.51 217.11 246.2 217.11 246.2 208.03 268.91 208.03 268.91 201.61 278.06 201.61 278.06 193.8 318.11 193.8 318.11 196.33 504.21 194.25 504.21 205.16 512.87 205.16 512.87 158.93 512.87 159.01 560.52 157.48 770.87 150.7 770.87 106.8 777.13 107.47 777.13 156.49 757.55 157.13 757.55 188.05 757.55 197.75 729.96 197.75 729.96 216.23 735.95 216.23 735.95 222.35 727.75 222.35 727.75 207.83 684.62 207.83 684.62 221.66"/><polygon class="cls-3" points="513.42 671.96 513.42 656.84 511.21 656.84 511.21 633.55 513.42 633.55 513.42 614.03 470.94 614.03 470.94 622.13 464.86 622.13 464.86 628.35 447.72 628.35 447.72 622.13 440.54 622.13 440.54 614.03 432.33 614.03 432.33 633.55 435.47 633.55 435.47 656.84 432.33 656.84 432.33 671.49 439.7 671.88 439.7 685.08 441.64 685.08 441.64 679.82 507.62 679.82 507.62 671.96 513.42 671.96"/><path class="cls-3" d="M532,747v21.54h4.89V779.2h-27v89.33l-4.89-.47v9.13H318.26l-.63,4.74H278v-6.1h-9.85v-3.58H207.25v3.58h-9.09v6.5H157.75V837.5l5.12-.32.76-8.17,3.15-.38V765.37L163,765V754.9H133.14v-7.51H124.3v-8.08H127V556.14H146v18.47h68.67V559.7h52v7.11h22.86v48.4h29.94v7.91h7.48l.29,5.73H347.9l.71-6.13h7.65l-.43-7.8h7.58v19.7H361.2v21.75h2.21V672h-8.68v8.19H276.24v-8.1H202.71V714h25.8v47.7c-11.41,3.5-20.21,13.27-23.07,25.62h-2.36v16.26h2.17c2.67,12.92,11.8,23.18,23.72,26.64v2.71h16.95v-2.6C258,827,267.32,816.65,270,803.58h45.66v42.79H304.9v6.72H322V803.58h17.13V832H363v7.5h17.23V868.6h34.46V839.26h18.43v-7.51h23.5V821.67h39.34v-32h-12l-27.3-24v-9.62H432.7V713.8h7V698h1.93v7.74h66v7.61h6.55v9.48h8.29V747H533.7"/><path class="cls-3" d="M91.77,391.17H79v9.09H91.77v33.29H79.52v8.6H91.77V475l-12.25.13v8.11l12.25-.16v33.64H79.52v8.39H91.77v37H79.52V570H91.77v31.12H79.52v8.49H91.77v33.89H79.52v9H91.77v6.12h9.4v19h-9.4v7.21H79.52v8.49H91.77v32.31H47.54v-6.42h-8v6.42H8.29V693.25H39.53v7.33h8v-7.33h14v-8.49h-14V678h-8v6.72H8.29v-32.3H39.53v6.61h8v-6.61h14v-9h-14v-7h-8v7H8.29V609.58H39.53v7.31h8v-7.31h14v-8.49h-14v-5.7h-8v5.7H8.29V570H39.53v7h8v-7h14v-7.8h-14v-7h-8v7H8.29v-37H39.53v8h8v-8h14v-8.39h-14v-6.8h-8v6.8H8.29V484.17l31.24-.4v7.36h8v-7.47l14-.18v-8.16l-14,.15v-6.74h-8v6.82l-31.24.32V442.15H39.53V450h8v-7.8h14v-8.6h-14v-6.41h-8v6.41H8.29V400.26H39.53v8.51h8v-8.51H61v-9.09H47.54v-6.8h-8v6.8H8.29V359.36H39.53v7h8v-7H91.77v31.81m15.15,348.14h-4.09V346.42h2.39v-7.87H94.72V350.3l-94.17.9V734.35H94v13h12.94l.27-8.08"/></g><g id="clickable"><g class="cls-6"><rect class="cls-7" x="-0.97" y="0.17" width="1921.94" height="1079.83"/></g></g><g id="controls"><path id="left" class="cls-8" d="M69.12,63.65a51.83,51.83,0,0,0-13.8,35,51.16,51.16,0,0,0,12.42,33.66L48.24,152A80,80,0,0,1,49.1,43.28Z"/><path id="up" class="cls-8" d="M141.11,59.68a51.32,51.32,0,0,0-34-12.6,52.6,52.6,0,0,0-33,11.74L53.93,38.45a79.92,79.92,0,0,1,107.55.86Z"/><path id="down" class="cls-8" d="M161.82,156.35a79.79,79.79,0,0,1-108.4.69l19.5-19.51a51.59,51.59,0,0,0,34.35,12.95,51,51,0,0,0,35.05-13.81Z"/><path id="right" class="cls-8" d="M147.15,131.66a51.86,51.86,0,0,0-1.21-67.15l20.37-20.19a79.95,79.95,0,0,1,.17,107.19Z"/><g id="_-" data-name="-"><path class="cls-9" d="M151.64,97.66H62.74c0,24,19.85,43.5,44.53,43.5S151.64,121.65,151.64,97.66Z"/><line class="cls-10" x1="100.89" y1="118.37" x2="112.97" y2="118.37"/></g><g id="_" data-name="+"><path class="cls-9" d="M151.64,98H62.74c0-24,19.85-43.5,44.53-43.5S151.64,74,151.64,98Z"/><line class="cls-10" x1="107.1" y1="70.9" x2="107.1" y2="82.12"/><line class="cls-10" x1="101.75" y1="76.6" x2="112.45" y2="76.6"/></g></g></svg>