<?xml version="1.0" encoding="utf-8"?>
<!-- Generator: Adobe Illustrator 24.3.0, SVG Export Plug-In . SVG Version: 6.00 Build 0)  -->
<svg version="1.1" id="Layer_1" xmlns="http://www.w3.org/2000/svg" xmlns:xlink="http://www.w3.org/1999/xlink" x="0px" y="0px"
	 viewBox="0 0 1745.4 922.5" style="enable-background:new 0 0 1745.4 922.5;" xml:space="preserve">
<style type="text/css">
	.st0{fill:#29ABE2;stroke:#29ABE2;stroke-linecap:round;stroke-linejoin:round;stroke-dasharray:0.15,0.15;}
	.st1{fill:#29ABE2;stroke:#29ABE2;stroke-miterlimit:10;}
	.st2{fill:none;stroke:#29ABE2;stroke-linecap:round;stroke-linejoin:round;}
	.st3{fill:none;stroke:#29ABE2;stroke-miterlimit:10;}
	.st4{fill:#29ABE2;}
	.st5{fill:#29ABE2;stroke:#FFFFFF;stroke-width:2;stroke-miterlimit:10;}
	.st6{fill:none;stroke:#FFFFFF;stroke-width:2;stroke-miterlimit:10;}
</style>
<g id="crypt">
	<path class="st0" d="M1741.1,475.5c1-8,1-16.1,0-24.1"/>
	<path class="st1" d="M1741.1,475.5h-5.4c-0.1,0.8-0.2,1.6-0.4,2.4h-12.5c-0.2,1-0.4,2-0.6,3h-20.6c-2.2,7.3-5.8,14.1-10.5,20
		l11.6,16.9c-0.8,0.8-1.6,1.7-2.4,2.5l6.7,10.4c-0.8,0.7-1.6,1.5-2.4,2.2l3.1,4.7c4.4-3.8,8.4-7.9,12.1-12.4l5.7,4.1
		c8.8-9.3,15.3-20.6,18.7-33l-7.2-2.9C1739,487.6,1740.3,481.6,1741.1,475.5"/>
	<path class="st0" d="M1709.4,390.5c-6.3-5.7-13.3-10.5-20.8-14.3"/>
	<path class="st1" d="M1744.8,432.1l-7,3.2c1.6,5.3,2.7,10.6,3.3,16.1h-5.1c-0.1-0.9-0.2-1.9-0.3-2.8h-12.9
		c-0.2-0.8-0.3-1.7-0.5-2.5h-20.5c-2.2-7.6-5.8-14.6-10.7-20.8l11.4-16.8c-0.4-0.5-0.9-0.9-1.3-1.4l6.6-9.7
		c-0.6-0.6-1.3-1.3-1.9-1.9l3.7-5c4.2,3.8,8,7.9,11.5,12.3l6.2-4.7C1735.2,408.1,1741.2,419.7,1744.8,432.1z"/>
	<rect x="1560.9" y="423.4" class="st1" width="6.5" height="5.9"/>
	<rect x="1560.9" y="501.1" class="st1" width="6.5" height="5.4"/>
	<rect x="1595.5" y="423.4" class="st1" width="6.2" height="5.9"/>
	<rect x="1644.3" y="423.4" class="st1" width="5.5" height="5.9"/>
	<rect x="1595.5" y="501.1" class="st1" width="6.2" height="5.4"/>
	<rect x="1644.3" y="501.1" class="st1" width="5.5" height="5.4"/>
	<path class="st2" d="M1649.8,503.8c11.6-2,21.7-9,27.6-19.2"/>
	<path class="st1" d="M1680.7,480.7l-4.2-2.8c-0.8,1.7-1.7,3.4-2.7,5l4.7,2.2C1679.3,483.7,1680,482.2,1680.7,480.7z"/>
	<path class="st2" d="M1676.6,443.4c-6-9.5-15.7-16-26.8-17.9"/>
	<path class="st1" d="M1675.9,449.3l4.7-2.1c-0.7-1.6-1.5-3.1-2.4-4.6l-4.8,2.4C1674.4,446.4,1675.2,447.8,1675.9,449.3z"/>
	<path class="st2" d="M1679.7,480c4.3-10.3,4.1-22-0.6-32.1"/>
	<line class="st2" x1="1567.5" y1="504.1" x2="1595.5" y2="504.1"/>
	<line class="st2" x1="1601.7" y1="504.1" x2="1644.3" y2="504.1"/>
	<line class="st2" x1="1561.3" y1="405.1" x2="1602.9" y2="405.1"/>
	<line class="st2" x1="1564.6" y1="474" x2="1564.6" y2="501.1"/>
	<line class="st3" x1="1564.8" y1="474" x2="1564.8" y2="501.1"/>
	<line class="st2" x1="1564.8" y1="429.2" x2="1564.8" y2="455.9"/>
	<line class="st2" x1="1564.6" y1="429.2" x2="1564.6" y2="455.9"/>
	<line class="st2" x1="1567.5" y1="425.9" x2="1595.5" y2="425.9"/>
	<line class="st2" x1="1601.7" y1="425.9" x2="1644.3" y2="425.9"/>
	<polyline class="st1" points="1602.9,405.1 1602.9,391 1600.1,391 1600.1,375.6 1602.9,375.6 1602.9,359.6 1610.3,359.6 
		1590.7,359.6 1590.7,361.9 1573.8,361.9 1573.8,359.6 1561.3,359.6 1561.3,375.6 1563.7,375.6 1563.7,391 1561.3,391 1561.3,405.1 
			"/>
	<line class="st2" x1="1387" y1="320.1" x2="1455.2" y2="319.5"/>
	<polygon class="st1" points="1495.7,392.1 1495.7,405.6 1454.1,405.6 1454.1,392.1 1456.1,392.1 1456.1,376.5 1454.1,376.5 
		1454.1,360.5 1467.6,360.5 1467.6,362.4 1484,362.4 1484,360.5 1495.7,360.5 1495.7,376.5 1493.3,376.5 1493.3,392.1 	"/>
	<rect x="1456" y="424.4" class="st1" width="5" height="5.7"/>
	<rect x="1490.1" y="424.4" class="st1" width="5.1" height="5.7"/>
	<rect x="1456" y="501.8" class="st1" width="5" height="5.4"/>
	<rect x="1490.1" y="501.8" class="st1" width="5.1" height="5.4"/>
	<polygon class="st1" points="1598.4,540.7 1598.4,557 1600.9,557 1600.9,572.5 1589.1,572.5 1589.1,571 1572.6,571 1572.6,572.7 
		1560.3,572.7 1560.3,557 1562.2,557 1562.2,540.7 1560.3,540.7 1560.3,525.2 1600.9,525.2 1600.9,540.7 	"/>
	<polygon class="st1" points="1465.7,570.9 1480.3,570.9 1480.3,573.1 1494.5,573.1 1494.5,557.4 1492.7,557.4 1492.7,541 
		1494.5,541 1494.5,525.5 1453.8,525.5 1453.8,541 1455.9,541 1455.9,557.4 1453.8,557.4 1453.8,573.1 1465.7,573.1 	"/>
	<rect x="1331.7" y="424.4" class="st1" width="6" height="5.7"/>
	<rect x="1347.8" y="424.4" class="st1" width="4.5" height="5.7"/>
	<rect x="1381.4" y="424.4" class="st1" width="5.2" height="5.7"/>
	<rect x="1347.8" y="449.3" class="st1" width="4.5" height="6.4"/>
	<rect x="1331.7" y="501.8" class="st1" width="6" height="5.4"/>
	<rect x="1347.8" y="501.8" class="st1" width="4.5" height="5.4"/>
	<rect x="1381.4" y="501.8" class="st1" width="5.2" height="5.4"/>
	<polygon class="st1" points="1386.6,526 1386.6,541.3 1384.4,541.3 1384.4,558.2 1386.6,558.2 1386.6,573.5 1347,573.5 1347,568.6 
		1324.3,568.6 1324.3,530.5 1331.1,530.5 1331.5,526 1338,526 1338,530.5 1347.7,530.5 1347.7,526 	"/>
	<polygon class="st1" points="1338.2,399.2 1338.2,405.8 1332.5,405.8 1332.5,399.2 1326.5,399.2 1326.5,367.1 1348.8,367.1 
		1348.8,360.5 1360.2,360.5 1360.2,362.8 1375.6,362.8 1375.6,360.5 1386.6,360.5 1386.6,376.5 1384.3,376.5 1384.3,391.9 
		1386.6,391.9 1386.6,405.8 1347.9,405.8 1347.9,399.2 	"/>
	<rect x="993.2" y="692.3" class="st1" width="5" height="4.8"/>
	<rect x="1033.8" y="692.3" class="st1" width="5" height="4.8"/>
	<polyline class="st1" points="993.2,730.5 998.2,730.5 998.2,735 993.2,735 993.2,730.4 	"/>
	<rect x="1033.8" y="730.5" class="st1" width="5" height="4.4"/>
	<polygon class="st1" points="1066.3,613.3 1127.1,613.3 1127.1,735.3 1114.3,735.3 1114.3,758.7 1077,758.7 1077,735 1066.3,735 	
		"/>
	<rect x="1175.1" y="502.3" class="st1" width="4.1" height="4.4"/>
	<rect x="1292.6" y="502.4" class="st1" width="5.4" height="5.9"/>
	<line class="st2" x1="1285" y1="504.7" x2="1292.6" y2="504.7"/>
	<rect x="1175.1" y="425.6" class="st1" width="4.2" height="4.2"/>
	<polygon class="st1" points="1285,508.3 1285,502.4 1276.9,502.4 1277.3,508.3 1245.1,508.3 1245.1,502.6 1238.5,502.6 
		1238.5,508.3 1231.6,508.3 1231.6,514.2 1179.2,514.2 1179.2,508.3 1172.9,508.3 1172.9,502.3 1169.1,502.3 1169.1,487 1157.4,487 
		1157.4,581.2 1281.9,581.2 1281.9,568.6 1303.4,568.6 1303.4,530.4 1298.2,530.4 1297.8,526 1292.2,526 1291.8,530.4 1283.2,530.4 
		1283.2,508.3 	"/>
	<rect x="1231.6" y="502.2" class="st1" width="4.8" height="3.9"/>
	<rect x="1288.5" y="411.5" class="st1" width="4.5" height="5.4"/>
	<rect x="1292.9" y="424" class="st1" width="5.3" height="6.2"/>
	<rect x="1231.7" y="425.5" class="st1" width="4.6" height="4.3"/>
	<line class="st2" x1="1285.8" y1="425.3" x2="1292.9" y2="425.3"/>
	<rect x="1331.7" y="449.3" class="st1" width="6" height="6.4"/>
	<rect x="1331.7" y="476.5" class="st1" width="6" height="5.8"/>
	<line class="st2" x1="1295.2" y1="430.2" x2="1295.2" y2="449.3"/>
	<line class="st2" x1="1295.2" y1="482.2" x2="1295.2" y2="502.4"/>
	<polygon class="st1" points="902.8,736.1 916.9,736.1 916.9,758.9 952.7,758.9 952.7,736 965,736 965,614 902.8,614 	"/>
	<rect x="993.2" y="613.8" class="st1" width="5" height="6"/>
	<rect x="993.2" y="653.2" class="st1" width="5" height="4.6"/>
	<rect x="1033.8" y="613.8" class="st1" width="5" height="6"/>
	<rect x="1033.8" y="653.2" class="st1" width="5" height="4.6"/>
	<polygon class="st1" points="748.2,522.2 748.2,533.4 725.7,533.4 725.7,570.3 748.5,570.3 748.5,581.4 874.2,581.4 874.2,522.2 	
		"/>
	<line class="st2" x1="1115.7" y1="574.5" x2="1115.7" y2="613.3"/>
	<polygon class="st1" points="1097.1,574.5 1097.1,567.4 1113.6,551.3 1119.5,551 1119.5,574.5 	"/>
	<polygon class="st1" points="1047.5,532.3 1072.4,556.6 1066,562.2 1071.5,567.4 1071.5,574.5 1034.3,574.5 1034.3,539.7 
		1038.7,539.7 1038,535.5 1043.2,533.6 1044.7,535.1 	"/>
	<polygon class="st1" points="1083.2,491.6 1083.6,487 1119.5,487 1119.5,526 1115.3,526 1108.8,519.2 1102.1,526.2 1078.2,501.7 
		1081.7,498.5 1079.1,497.1 1081.3,491.6 	"/>
	<polygon class="st1" points="961.1,567.5 964.3,564.2 957.7,557.9 982.8,532.3 986.7,536.5 988.3,534.2 993.7,536.4 993.1,539.6 
		999.6,539.6 999.6,574.8 961.1,574.8 	"/>
	<polygon class="st1" points="917,551.9 934.8,570 934.8,574.8 910.7,574.8 910.7,551.9 	"/>
	<line class="st2" x1="912.8" y1="574.8" x2="912.8" y2="584.5"/>
	<line class="st2" x1="913.8" y1="574.8" x2="913.8" y2="584.5"/>
	<line class="st2" x1="912.8" y1="604" x2="912.8" y2="614"/>
	<line class="st2" x1="913.8" y1="604" x2="913.8" y2="614"/>
	<polygon class="st1" points="952.8,496.9 950.8,491.5 948.3,492 948.3,487.7 910.7,487.7 910.7,526.6 918.6,526.6 922.8,522.5 
		927.2,526.6 928.4,526.6 952.7,501.9 949.6,498.5 	"/>
	<path class="st1" d="M1034.5,505.7c-1.6,0.8-3.2,1.6-4.9,2.2l-1.6-4.2c1.5-0.6,3-1.2,4.4-2L1034.5,505.7z"/>
	<path class="st1" d="M1050.2,479.5l4.4,1.2c-0.6,2-1.3,4-2.2,5.9l-4.1-1.9C1049.1,483.1,1049.7,481.3,1050.2,479.5z"/>
	<path class="st1" d="M1046.8,452.3l4.3-2.5c1,1.8,1.8,3.7,2.6,5.6l-4.6,1.7C1048.5,455.5,1047.7,453.9,1046.8,452.3z"/>
	<path class="st1" d="M1026.9,435.8l1.7-5.1c1.7,0.6,3.4,1.3,5,2.1l-2.3,4.8C1029.8,437,1028.4,436.4,1026.9,435.8z"/>
	<path class="st1" d="M999.8,431.5l2.1,5.2c1.5-0.6,3-1.1,4.5-1.5l-1.4-5.4C1003.2,430.2,1001.5,430.8,999.8,431.5z"/>
	<path class="st1" d="M976.2,456.4l5.2,1.8c0.6-1.7,1.3-3.4,2.2-5.1l-4.9-2.6C977.8,452.4,976.9,454.4,976.2,456.4z"/>
	<path class="st1" d="M1004.8,509.2l1.2-4.5c-1.6-0.5-3.3-1-4.8-1.7l-1.9,4.3C1001.1,508.1,1002.9,508.8,1004.8,509.2z"/>
	<path class="st1" d="M977.9,486.8l4.7-2.1c-0.7-1.7-1.4-3.4-1.9-5.2l-5,1.4C976.3,482.9,977,484.8,977.9,486.8z"/>
	<polygon class="st1" points="1003.1,365.5 1008.5,370.6 1025,370.3 1030.7,364 1030.7,360.7 1026.5,356.9 1020.3,362.8 
		1013.3,362.8 1006.6,356.3 1003.1,359.9 	"/>
	<polygon class="st1" points="1067.1,373 1072.7,367.8 1072.7,361.4 1033.8,361.4 1033.8,399.3 1039.4,399.7 1039.1,402.1 1044,404 
		1045.2,402.8 1047.2,405 1073.2,379.3 	"/>
	<polygon class="st1" points="1114.9,384.7 1097.2,366.8 1097.2,361.4 1119.8,361.4 1119.8,384.7 	"/>
	<polygon class="st1" points="1083.7,444 1080,444 1078.5,439.9 1080.3,438.4 1077.7,435.6 1103.2,409.7 1109.2,415.8 1114.4,410.8 
		1119.9,410.8 1119.9,448.8 1083.4,448.8 	"/>
	<polygon class="st1" points="916.7,385.9 935.4,366.5 935.2,361.4 911,361.4 911,385.9 	"/>
	<polygon class="st1" points="923.4,417.6 916.8,411.3 911,411.3 911,449.1 948.5,449.1 948.5,444.8 951.3,445.9 953.7,440.9 
		950.8,439.3 953.7,435.8 929.5,411.8 	"/>
	<polygon class="st1" points="966.4,373.8 961,379.4 984.9,404.1 987.8,400.4 989.4,403.6 995,401.6 995,399.8 999.5,399.8 
		999.5,361.4 960.6,361.4 960.9,367.8 966.3,372.9 	"/>
	<line class="st2" x1="1160.9" y1="328.9" x2="1160.9" y2="330.5"/>
	<polygon class="st1" points="1304,367.1 1281.8,367.1 1281.8,352.8 1157.6,352.8 1157.6,448.3 1168.5,448.3 1168.5,430.6 
		1172.8,430.3 1172.8,424 1179.6,424 1179.6,417.5 1231.8,417.5 1231.8,424 1238.9,424 1238.9,430.2 1245.6,430.2 1245.6,424 
		1277.5,424 1277.5,430.2 1285.8,430.2 1285.8,424 1283.2,424 1283.2,405.8 1298.2,405.8 1298.2,399.1 1304,399.1 	"/>
	<line class="st2" x1="1128.1" y1="305.2" x2="1129.3" y2="305.2"/>
	<line class="st2" x1="1148.7" y1="305.2" x2="1150.8" y2="305.2"/>
	<rect x="992.8" y="198.5" class="st1" width="5.5" height="5.9"/>
	<rect x="992.8" y="237.6" class="st1" width="5.5" height="5.9"/>
	<rect x="1033.3" y="198.5" class="st1" width="5.2" height="5.9"/>
	<line class="st2" x1="1033.3" y1="237.6" x2="1033.3" y2="243.5"/>
	<polyline class="st1" points="1033.3,243.5 1038.5,243.5 1038.5,237.6 1033.3,237.6 	"/>
	<line class="st2" x1="1033.3" y1="316.3" x2="1066.3" y2="316.3"/>
	<rect x="992.8" y="278.5" class="st1" width="5.5" height="4.7"/>
	<rect x="992.8" y="316.3" class="st1" width="5.5" height="6.2"/>
	<rect x="1033.3" y="316.3" class="st1" width="5.2" height="6.2"/>
	<line class="st2" x1="965.9" y1="317.2" x2="992.8" y2="317.2"/>
	<line class="st2" x1="1028.1" y1="317.2" x2="1033.3" y2="317.2"/>
	<polygon class="st1" points="953.4,198 953.4,175.5 938.8,175.5 938.8,173.1 914.9,173.1 914.9,198 903.3,198 903.3,323 965.9,323 
		965.9,198 	"/>
	<path class="st1" d="M795,675.1c-4.2,3.7-4.6,10-0.9,14.2c3.7,4.2,10,4.6,14.2,0.9c4.2-3.7,4.6-10,0.9-14.2c-0.7-0.8-1.5-1.5-2.4-2
		v-70H874v10h8.5v122.1H870v6.5h-22.3v9.5h-18.3V788h18.3v8.2h22.1v6h13.7V844H904v-41.7h12.9v-22.5h35.8v22H968l4.5,43.8h12.2
		l3.4-43.8h11.7c0.9,9.1,9,15.8,18.1,14.9c7.9-0.8,14.1-7,14.9-14.9h9.9l4.3,43.5h11.1l3.8-43.5h15.1v-22.6h36.8v22.5h13.2v41.5
		h21.9v-41.7h12V796h21v-7.2h17.4V750H1182v-8.2h-20.2v-7.2h-12.7V604.1h132.5v13.2h5.9v23h10v16.6h33.2v-16.6h7.9v-23h7.5V611h40.5
		v6.4h5.5V640h12v16.4h32.3V640h8.2v-23.2h8.6v-6.3h40.9v6.3h6.6v23h8v16.6h34.3v-16.6h9v-22.9h7.2v-6.5h41.9v6h22.7v-4.2h20.5V606
		h6.9v-30.6h-6.9v-3.1h-20.1V557h2v-16.3h-2v-16.1h24l12.9-3l11.5,16.5c1-0.2,1.9-0.6,2.9-1l6.9,10.7c1-0.5,2.1-1,3.1-1.5l2.8,4.5
		c-5.6,2.8-11.4,5.1-17.5,6.8v13.9h-9.6v44.6h10.9V652h-6.5v11.7h-2.8v6.6h-36.9V664h-26.3v5.9H1562v-5.6h-70.7v5.9H1454v-5.5h-70.2
		v6.4h-36.9l0.4-6.2h-69.1l-0.4,6.5h-5.4v20.2h5.2v43.3h-41.8v-4.4h-18.4v4.6h-6.8v68.3h5.7V842h-6.4v9.4l-7.4,0.5v6h-38.7v-7.4
		h-52.4l-0.4,7.6h-6.1v3.7h-15.1c-9.1,41.3-49.9,67.4-91.2,58.4c-29.1-6.4-51.8-29-58.3-58.1h-14.1l0.3-3.6h-6.1v-7.6H865v7.4h-38.7
		v-5.9h-8.7V844l-5.6-0.4v-38.9h5.9v-68.6h-6.6v-5.2h-20.4v5.2h-37.4l-0.3-5.2h-4v-64.5h-27V657h8v-17.3h11.5v-21.1h7.1v-14.2h47.1
		v59.4h-6.7V675L795,675.1"/>
	<polygon class="st1" points="641.5,543.2 641.5,527.3 683.5,527.3 683.5,533.8 704,533.8 704,570.4 683.2,570.4 682.8,575.6 
		672.7,575.6 671.5,574.2 654.7,574.2 653.7,575.7 641.5,575.7 641.5,562.7 643.1,562.7 643.1,543.2 	"/>
	<polygon class="st1" points="535.8,562.8 535.8,543.3 533.8,543.3 534,527.2 575.1,527.2 575.1,543.3 572.8,543.3 572.8,562.8 
		575.1,562.8 575.1,575.8 562.8,575.8 562.9,574.3 544.6,574.3 544.6,575.8 533.5,575.8 533.6,562.8 	"/>
	<line class="st2" x1="331.3" y1="238.7" x2="331.3" y2="324.3"/>
	<polyline class="st1" points="250.1,352.8 325.3,352.8 325.3,360.3 329.9,360.3 329.9,375.4 328,375.4 328,393.6 329.9,393.6 
		329.9,409.6 323.1,409.6 323.1,403.6 317.2,403.6 317.2,398.3 299.3,398.3 299.3,403.6 292.2,403.6 291.8,409.8 263.4,409.8 
		263.4,447.5 242.4,447.5 242.4,454.4 195.2,454.4 195.2,441.2 132.7,441.2 132.7,455.5 115.4,455.5 115.4,287.8 146.2,287.8 
		146.2,278.9 150.4,278.9 150.4,221.8 145.8,221.5 145.8,210.5 140.2,210.5 140.2,171.7 178.2,171.7 178.2,177.7 187.2,177.7 
		187.2,183.1 210.2,183.1 210.2,190.7 210.2,190.8 207.7,190.8 207.7,222.7 193.2,222.7 193.2,229.5 187.5,229.5 187.5,278.3 
		193.8,278.3 193.8,285 208.4,285 208.4,324.7 183.1,324.7 183.1,358.4 250.8,358.4 250.8,352.8 	"/>
	<rect x="283.3" y="445.1" class="st1" width="7.4" height="6.5"/>
	<polygon class="st1" points="283.3,497.2 290.7,497.1 290.7,489.9 283.3,489.9 	"/>
	<rect x="323.7" y="445.1" class="st1" width="7" height="6.5"/>
	<polygon class="st1" points="330.7,489.9 330.7,496.9 323.7,496.9 323.7,489.9 	"/>
	<rect x="393.4" y="445.1" class="st1" width="6.7" height="6.5"/>
	<polygon class="st1" points="393.4,496.5 400,496.5 400,489.9 393.4,489.9 	"/>
	<rect x="428" y="445.1" class="st1" width="5.9" height="6.5"/>
	<rect x="460.8" y="445.1" class="st1" width="6.5" height="6.5"/>
	<polygon class="st1" points="467.2,489.9 467.2,496.1 460.8,496.2 460.8,489.9 	"/>
	<polygon class="st1" points="433.9,496.3 433.9,489.9 428,489.9 428,496.4 	"/>
	<polyline class="st1" points="331.3,238.7 321.3,238.7 321.3,239.9 328.9,239.9 328.9,289.2 309.4,289.2 309.4,278.8 288.3,278.8 
		288.3,265.5 262.9,265.5 246.8,265.5 246.8,278.3 241.5,278.3 241.5,285 228,285 228,324.7 250.8,324.7 250.8,331.7 250.5,331.7 
		325.3,331.7 325.3,324.3 331.3,324.3 	"/>
	<rect x="533.9" y="444" class="st1" width="6.7" height="6.5"/>
	<rect x="533.9" y="488.9" class="st1" width="6.7" height="6.5"/>
	<rect x="568.8" y="444" class="st1" width="6" height="6.5"/>
	<rect x="641.5" y="444" class="st1" width="6.5" height="6.5"/>
	<rect x="676.3" y="444" class="st1" width="6.7" height="6.5"/>
	<rect x="676.3" y="488.9" class="st1" width="6.7" height="6.5"/>
	<rect x="641.5" y="488.9" class="st1" width="6.5" height="6.5"/>
	<rect x="568.8" y="488.9" class="st1" width="6" height="6.5"/>
	<line class="st3" x1="535.4" y1="194.7" x2="622.4" y2="194.7"/>
	<polygon class="st1" points="874.5,354 874.5,413.5 748,413.5 748,401.2 725.2,401.2 725.2,367.1 747.5,367.1 747.5,354 	"/>
	<rect x="750" y="443" class="st1" width="5.2" height="6.5"/>
	<rect x="750" y="488.1" class="st1" width="5.2" height="6.5"/>
	<rect x="788" y="443" class="st1" width="6.1" height="6.5"/>
	<rect x="826" y="443" class="st1" width="7" height="6.5"/>
	<rect x="868.1" y="443" class="st1" width="6.4" height="6.5"/>
	<rect x="868.1" y="488.1" class="st1" width="6.4" height="6.5"/>
	<rect x="826" y="488.1" class="st1" width="7" height="6.5"/>
	<rect x="788" y="488.1" class="st1" width="6.1" height="6.5"/>
	<path class="st1" d="M727.7,148.4h129.5l57.4-0.6v5.1H953v-24.8h16.5l2.5-42.9h12.2l3.5,42.9h12.8c0.2-8.5,7.3-15.2,15.8-15
		c8.2,0.2,14.8,6.8,15,15h13.4l2.2-42.9h13.2l3,42.9h15.1v25.3h16.1v21.4h-15.7V198h-12.4v124.2h61.8V198h-13.1v-23.1H1098v-21.4
		h16.6V129h12.9V93.3h22V129h11.9v7.2h22.2v8.2h17.9V183h-17.9v7.6h-22.2l0.4,7.1h-10.9V322h7.2v6.8h59.9v-65.3h-31v-22.6h36.7
		l2.5-23.1v-2.6h7.4v0.2l3.3,25.6h3.5v87.7h41.6V317h7.6v-22.3h10.2V279h32.2v15.9h9.3v22.3h6.4l0.4,6h39.1v-5.9h8.2V295h9.4v-15
		h33.2v15h10.6v22.3h7v5.8h39.7v-6.2h6.9v-22.3h9.6v-15.2h32.8v15.2h11.5v21.9h6.9v6.3h39.9v-4.3h16.5v4.3h27.8v2.9h7V355h-7v4.6
		H1625v44.2h16.8l4.5-0.4h9.8c2,0.4,4,1,5.9,1.6l11.9-16.1c0.8,0.3,1.6,0.6,2.3,1l7.9-10.4l1.7,1l2.7-4.4
		c-5.6-2.9-11.4-5.2-17.4-6.9l0.5-10.8h-8.7v-39.3h9.3V281h-5v-11.2h-3.7v-5.4h-36.3v6h-9.1v2.8h-7.2v-2.7h-9.7v-5.8l-37.3,0.2v5.8
		h-71.5l-0.4-5.4h-36.5v5.4h-70.2v-5.2H1346v4.3h-3.4v-3.3h-13.8v5h-44.6v-6.1h-5.4v-21.6h5.4v-37.9h-6.5v-6.1h-37.5v5.9h-7.4l0.3,5
		h-7.2v-5h-8v-6.2l-4.9,0.3v-70.5h4V90.8h-5.7v-8.2h-7.4v-7h-39v7h-51.1v-6.8h-7.7v-5h-14.7v-0.1c-7.5-41.9-47.6-69.7-89.4-62.1
		c-31.8,5.7-56.7,30.7-62.2,62.6h-12.4l-0.5,4.6h-7.3l-0.5,6.6h-52.3v-6.1h-39.1v6.6h-34.4l-0.2-1.9h-65.4L727.7,148.4"/>
	<line class="st2" x1="998.3" y1="317.2" x2="1003.2" y2="317.2"/>
	<path class="st1" d="M329.9,612v36.5h-21.6v25.8h-63c-2.6-10.4-10.6-18.7-20.9-21.7v-40.5h26.7v-6.4h71.3v6.2h7.5V612z"/>
	<polygon class="st1" points="574.4,619.2 582.4,619.2 582.4,640 592.6,640 592.6,657.6 598,657.6 598,666.9 574.2,666.9 
		574.2,673.3 532.3,673.3 532.3,667.4 512.3,667.4 512.3,658.4 516.2,658.4 516.2,640.1 525.9,640.1 525.9,619.5 533.3,619.5 
		533.3,611.8 574.4,611.8 	"/>
	<polygon class="st1" points="536.2,393.2 536.2,374.7 533.9,374.7 533.9,360 546.8,360 546.8,362 562.6,362 562.6,360 574.7,360 
		574.7,374.7 572.4,374.7 572.4,393.2 574.7,393.2 574.7,408.7 533.9,408.7 533.9,393.2 	"/>
	<polygon class="st1" points="688,619.1 688,639.8 697.9,639.8 697.9,657 708.5,657 708.5,666.6 682.1,666.6 682.1,672.3 
		641.4,673.2 641.4,666.9 620,666.9 620,657.6 624.9,657.6 624.9,640 634.6,640 634.6,619.1 641.5,619.1 641.5,611.3 682.7,611.3 
		682.7,619.1 	"/>
	<rect x="1347.8" y="476.5" class="st1" width="4.5" height="5.8"/>
	<rect x="1292.5" y="449.3" class="st1" width="5.4" height="6.4"/>
	<rect x="1292.5" y="476.5" class="st1" width="5.4" height="5.8"/>
	<rect x="1033.3" y="278.5" class="st1" width="5.2" height="4.7"/>
	<polyline class="st1" points="683.3,360.2 671.5,360.2 671.5,361 653.9,361 653.9,360.2 641.6,360.2 641.6,375.2 644,375.2 
		644,393.5 641.6,393.5 641.6,407.6 683.3,407.6 683.3,401.2 704,401.2 704,367.1 683.3,367.1 683.3,358.7 682.3,358.7 682.3,360.2 
			"/>
	<polyline class="st1" points="468.3,392.9 468.3,409.1 428.1,409.1 428.1,402.8 421.9,402.8 421.9,397.7 406.9,397.7 406.9,402.8 
		400.4,402.8 400.4,409.1 393.5,409.1 393.5,393.3 395.6,393.3 395.6,374.9 393.5,374.9 393.5,359.8 400,359.8 400,355.5 462,355.5 
		462,360.2 468.6,360.2 468.3,360.2 468.3,374.5 468.3,374.7 465.4,374.7 465.4,393.2 468.3,393.2 	"/>
	<path class="st0" d="M1688.2,550.7c7-3.6,13.6-7.9,19.5-13.1"/>
	<line class="st3" x1="708.5" y1="666.6" x2="722.2" y2="666.4"/>
	<polygon class="st1" points="729.4,169.9 829.4,167 829.4,182.6 848.4,182.6 848.4,190.8 869.7,190.8 869.7,197.5 882.2,198.2 
		882.2,323.3 874.9,323.3 874.9,331.5 815.8,331.5 815.8,329.5 792.2,329.5 792.2,331.5 747.7,331.5 747.7,317.8 740.5,317.8 
		740.5,296 730.8,296 730.8,281 727.7,281 727.7,261 729.4,261 	"/>
	<line class="st3" x1="598" y1="666.9" x2="620" y2="666.9"/>
	<line class="st3" x1="512.3" y1="667.4" x2="488.1" y2="667.4"/>
	<polygon class="st1" points="619.3,281.5 619.3,261 619.3,261 632.7,261 632.7,250.8 684.8,250.8 684.8,195.3 681.8,195.3 
		681.8,190.1 700.4,190.1 700.4,281 698.8,281 698.8,296 689.5,296 689.5,317.8 683.3,317.8 683,317.8 683.3,324.7 641.6,324.7 
		641.6,318.3 633.1,318.3 633.1,296.6 624,296.6 624,281.5 	"/>
	<polygon class="st1" points="580.7,318.7 580.7,296.8 589,296.8 589,281.5 594.2,281.5 594.2,261 581.7,261 581.7,256.2 
		521.7,256.2 518.4,259.4 518.4,263.5 511.2,263.5 506.5,267.8 506.5,281.7 518,281.7 518,297 527,297 527,318.7 533.9,318.7 
		533.9,325 574.4,325 574.4,318.7 	"/>
	<polygon class="st1" points="493.9,255.4 493.9,267.3 496.7,267.3 496.7,281.6 484,281.6 484,297.4 473.9,297.4 473.9,318.9 
		469.1,318.9 469.1,325.4 462,325.4 462,330.9 400.7,330.9 400.7,324.3 393.7,324.3 393.7,288.7 414.4,288.7 414.4,278.4 
		442.2,261.5 451.5,261.5 451.5,251 469.6,251 469.6,253.6 474,253.6 474,255.4 	"/>
	<polyline class="st1" points="622.4,194.7 535.4,194.7 535.4,179.8 521.2,179.8 521.2,178 522.7,178 522.7,145 522.7,145 
		509.5,145.4 471.1,146.6 471.1,179.9 489.7,179.9 489.7,234.9 488.1,236.6 469.8,236.6 469.8,241.4 451.3,241.4 451.3,228.9 
		414.4,228.9 414.4,214.1 393.3,214.1 393.3,205.5 378.4,205.5 378.4,181.8 343.9,181.8 343.9,205.5 330.5,205.5 330.5,214.7 
		309.4,214.7 309.4,229.3 288.3,229.3 288.3,243.4 262.9,243.4 246.8,243.4 246.8,229.5 241.6,229.5 241.6,222.7 225.9,222.7 
		225.9,190.8 223.8,190.8 223.8,183.1 244.4,183.1 244.4,177.7 252.8,177.7 252.8,171.1 289.2,171.1 289.2,173.2 458.4,171.4 
		458.4,180.7 466.2,180.7 466.2,141.5 466.2,141.6 509.5,140.3 700.8,134.5 700.8,97.3 706.5,97.9 706.5,139.4 688.7,140 
		688.7,166.2 688.7,174.4 663.6,174.4 663.6,190.1 669,190.1 669,195.3 661.6,195.3 661.6,182.9 622.4,182.9 622.4,194.7 	"/>
	<polygon class="st1" points="466.7,576.5 466.7,563.7 464.7,563.7 464.7,543.9 466.7,543.9 466.7,527.4 428.1,527.4 428.1,534.3 
		422.6,534.3 422.6,539.5 407,539.5 407,534.3 400.5,534.3 400.5,527.4 393,527.4 393,543.9 395.9,543.9 395.9,563.7 393,563.7 
		393,576.1 399.7,576.5 399.7,587.6 401.5,587.6 401.5,583.2 461.5,583.2 461.5,576.5 	"/>
	<path class="st1" d="M483.6,640.1v18.3h4.4v9h-24.5v75.8l-4.4-0.4v7.8H289.3l-0.6,4h-36v-5.2h-9v-3h-55.3v3h-8.3v5.5h-36.7v-38
		l4.7-0.3l0.7-6.9l2.9-0.3v-53.6l-3.4-0.3v-8.6H121v-6.4h-8v-6.8h2.4V478.3h17.3V494h62.4v-12.7h47.2v6h20.8v41h27.2v6.7h6.8
		l0.3,4.8h18.8l0.6-5.2h7l-0.4-6.6h6.9v16.7h-2v18.4h2v13.3h-7.9v7H251v-6.9h-66.8V612h23.4v40.5c-10.4,3-18.4,11.2-21,21.7h-2.1
		V688h2c2.4,11,10.7,19.7,21.6,22.6v2.3h15.4v-2.2c11-2.8,19.5-11.6,21.9-22.7H287v36.3h-9.8v5.7h15.5v-42h15.6v24H330v6.4h15.7
		v24.7H377v-24.8h16.8V712h21.4v-8.5H451v-27.1h-11L415,656v-8.2h-21.7V612h6.4v-13.4h1.8v6.6h60v6.5h6v8h7.5v20.5h10.2"/>
	<path class="st1" d="M83.4,338.4H71.8v7.7h11.7v28.2H72.3v7.3h11.1v27.9l-11.1,0.1v6.9l11.1-0.1v28.5H72.3v7.1h11.1v31.4H72.3v6.6
		h11.1v26.4H72.3v7.2h11.1v28.7H72.3v7.7h11.1v5.2H92v16.1h-8.6v6.1H72.3v7.2h11.1V622H43.2v-5.5h-7.3v5.5H7.5v-27.4h28.4v6.2h7.3
		v-6.2H56v-7.2H43.2v-5.7h-7.3v5.7H7.5V560h28.4v5.6h7.3V560H56v-7.6H43.2v-5.9h-7.3v5.9H7.5v-28.8h28.4v6.2h7.3v-6.2H56v-7.2H43.2
		v-4.8h-7.3v4.8H7.5V490h28.4v5.9h7.3V490H56v-6.6H43.2v-5.9h-7.3v5.9H7.5V452h28.4v6.8h7.3V452H56v-7.1H43.2v-5.8h-7.3v5.8H7.5
		v-27.6l28.4-0.4v6.2h7.3v-6.3l12.8-0.2v-6.9l-12.7,0.1v-5.7H36v5.8l-28.4,0.3v-28.6H36v6.6h7.3v-6.6H56v-7.3H43.2v-5.4h-7.3v5.4
		H7.5v-28.2h28.4v7.2h7.3v-7.2h12.2v-7.7H43.2v-5.8h-7.3v5.8H7.5v-27h28.4v5.9h7.3v-5.9h40.2V338.4 M97.2,633.6h-3.7V300.5h2.2v-6.7
		h-9.6v10l-85.6,0.7v324.9h84.9v11.1h11.8l0.2-6.8"/>
</g>
<path id="left" class="st4" d="M63.7,61c-4.9,5.3-8,12.5-8,20.3c0,7.5,2.7,14.3,7.2,19.5l-11.3,11.4C44.1,104,39.5,93,39.5,80.9
	c0-12.3,4.8-23.4,12.6-31.7L63.7,61z"/>
<path id="up" class="st4" d="M105.4,58.7c-5.3-4.6-12.1-7.3-19.7-7.3c-7.2,0-13.9,2.6-19.1,6.8L54.9,46.4c8.2-7.3,19-11.8,30.9-11.8
	c12.1,0,23.2,4.7,31.4,12.3L105.4,58.7z"/>
<path id="down" class="st4" d="M117.4,114.7c-8.3,7.8-19.4,12.5-31.6,12.5c-12,0-23-4.6-31.2-12.1l11.3-11.3
	c5.3,4.7,12.3,7.5,19.9,7.5c7.8,0,15-3,20.3-8L117.4,114.7z"/>
<path id="right" class="st4" d="M108.9,100.4c4.3-5.2,6.8-11.8,6.8-19.1c0-7.6-2.8-14.5-7.5-19.8L120,49.8c7.5,8.2,12,19.1,12,31.1
	c0,11.9-4.5,22.8-11.9,31L108.9,100.4z"/>
<g id="_x2D_">
	<path class="st5" d="M111.5,80.7H60c0,13.9,11.5,25.2,25.8,25.2S111.5,94.6,111.5,80.7z"/>
	<line class="st6" x1="82.1" y1="92.7" x2="89.1" y2="92.7"/>
</g>
<g id="_x2B_">
	<path class="st5" d="M111.5,80.9H60C60,67,71.5,55.7,85.8,55.7S111.5,67,111.5,80.9z"/>
	<line class="st6" x1="85.7" y1="65.2" x2="85.7" y2="71.7"/>
	<line class="st6" x1="82.6" y1="68.5" x2="88.8" y2="68.5"/>
</g>
</svg>
